<svg xmlns="http://www.w3.org/2000/svg" viewBox="0 0 2500.94 1800">
  <defs>
    <style>
      .cls-1 {
        fill: #04233a;
        fill-rule: evenodd;
      }

      .cls-2 {
        fill: none;
      }
    </style>
  </defs>
  <title>trees 2</title>
  <g id="Layer_3" data-name="Layer 3">
    <g id="trees">
      <g>
        <path class="cls-1" d="M1612.27,1331.64c0-25.33.42-46.74,1.79-72,.88-15.92-4.48-35.09-2.66-50.94.88-7.77.95-15.6,1.44-23.41-.84-.91-2.17-1-3.85-.49-.32,8.47-1.16,17.42-2.31,25.79-1.75,13,1.61,34.57.32,47.65-2.7,27-1.79,45.31-3.22,72.39,1,1.37,4.9,1.68,8.51,1Z" transform="translate(0)"/>
        <path class="cls-1" d="M1633.7,1188.1c-.77-2.17-1.51-4.34-2.28-6.51.07,2.31.1,4.62.14,6.93-.42-2.34-.81-4.69-1.19-7-.77,2.48-1.54,5-2.28,7.52-.7,0-.35.07-1.09-.24-.91-3.18-1.82-6.37-2.77-9.55-.7,1.5-1.4,3-2.14,4.55-.67-1.5-1.33-3-2-4.48-.7.73-1.37,1.47-2.07,2.2-4.38-2-8.76-4-13.17-6l5-1.68q57.48.68,66.13,35.37c-1.82-2.52-2.87-4.79-4.73-7.28,1,2.66,1.16,5.07,2.1,7.77-1.72-3.81-3.43-7.59-5.15-11.37.42,2.9.81,5.81,1.19,8.75-.74-2.76-1.51-5.53-2.28-8.26l-.84,6.19c-.35-2.41-.7-4.83-1.05-7.28-.32,2-.54,4.06-.9,6.09-.8-2.77-2.4-5.56-2.4-8.36v7.31c0-.14-.26-.24-.33-.38-.66-2.55-1.41-5.07-2.07-7.63q-.21,3.1-.37,6.19c-.74-3.08-1.45-6.19-2.18-9.31,0,2.1.06,4.23.13,6.33-.67-3.18-1.3-6.37-1.93-9.55-.07,2.34-.18,4.69-.25,7-.39-2.06-.81-4.13-1.19-6.19-.07,2.31-.18,4.62-.24,6.93-.56-2.62-1.12-5.25-1.68-7.91-.11,2.45-.25,4.86-.35,7.31l-2.52-8.5c-.18,2-.39,4-.6,6l-1.68-6.82c-.11,1.89-.21,3.74-.35,5.63-.6-2.76-1.19-5.49-1.79-8.26.11,2.55.25,5.11.35,7.66-1.12-2.73-2.21-5.42-3.33-8.12-.52,2.24-1.05,4.51-1.58,6.79-.35-2.41-.7-4.86-1.05-7.28-.1,2.62-.17,5.25-.25,7.87-.74-2.45-1.44-4.93-2.17-7.38,0,1.89.07,3.81.14,5.7-.95-2.41-1.86-4.83-2.77-7.28-.07,2.17-.18,4.34-.25,6.51Z" transform="translate(0)"/>
        <path class="cls-1" d="M1615.45,1176.65c22.8,8.36,39.12,20.64,44.2,39.71l-5.08-7.59.28,5.42-4.94-7.94,3.12,7.87-3.68-6,.11,3.85-1.65-5.18-1.68,5-3.36-13.65.56,6.33-1-2.87-1.19,7.31-.32-5.28-1.93,4.9-1.51-7.52-1.51,5.18-.95-7.1-.25,5.7-1.65-6.86-1.09,4.76-2.42-7.24-1.89,5.21-1.82-8-1.12,5.35-1.68-7.1-.56,4.9-1.82-6.37.53,5-1.82-6.26-.77,2.9-.28-7.56-2.1,5.39,0-.35Z" transform="translate(0)"/>
        <path class="cls-1" d="M1588.27,1190.68c.56-2.17,1.09-4.34,1.65-6.47q-.05,3.46-.11,6.93c.32-2.38.6-4.72.88-7.07.56,2.52,1.09,5,1.65,7.52.49,0,.25.07.77-.25l2-9.55c.53,1.54,1.05,3,1.58,4.55.45-1.47.95-3,1.44-4.44.49.7,1,1.43,1.51,2.17,3.15-2,6.34-4,9.53-5.95-1.23-.56-2.45-1.12-3.64-1.68q-41.61.68-47.88,35.34c1.33-2.52,2.1-4.76,3.43-7.28-.7,2.66-.84,5.11-1.51,7.77,1.23-3.78,2.49-7.56,3.71-11.37-.28,2.94-.6,5.84-.88,8.75.56-2.76,1.12-5.49,1.65-8.26.21,2.06.42,4.16.6,6.23.28-2.45.53-4.86.81-7.31.21,2,.49,4.09.7,6.12.63-2.8.86-5.6,1.86-8.36v7.28c0-.14.1-.25.14-.35.49-2.55,1-5.11,1.45-7.66.11,2.06.17,4.13.27,6.23.53-3.11,1-6.23,1.54-9.34,0,2.13,0,4.23-.07,6.33l1.36-9.55c.07,2.35.14,4.69.17,7.07.28-2.1.6-4.16.88-6.23.07,2.31.1,4.62.17,6.93.39-2.62.81-5.25,1.19-7.87.11,2.41.18,4.86.28,7.28.6-2.83,1.19-5.67,1.82-8.47.14,2,.28,4,.42,5.95.42-2.27.81-4.51,1.23-6.79.07,1.86.18,3.74.25,5.6.42-2.73.88-5.49,1.3-8.22-.07,2.52-.17,5.07-.25,7.63.81-2.69,1.61-5.42,2.42-8.12.39,2.27.74,4.55,1.12,6.82.25-2.45.53-4.86.77-7.31.07,2.63.14,5.28.17,7.91.53-2.48,1.05-5,1.58-7.42l-.11,5.74c.67-2.45,1.33-4.86,2-7.28.07,2.13.14,4.3.17,6.47Z" transform="translate(0)"/>
        <path class="cls-1" d="M1588.63,1183.9c1.23-1.89,2.45-3.74,3.68-5.6-.77,2.17-1.58,4.34-2.38,6.51,1.05-2.13,2.1-4.23,3.15-6.37l-.95,7.66c.49.14.21.14.84,0,1.68-2.8,3.36-5.6,5-8.36,0,1.61,0,3.18,0,4.79.95-1.22,1.89-2.48,2.84-3.74.21.88.46,1.71.67,2.59l11-2.48c-1-.94-1.93-1.85-2.87-2.8q-39.51-13.12-56.92,17.49c2.1-1.93,3.57-3.81,5.64-5.74-1.54,2.27-2.45,4.55-4,6.82,2.42-3.15,4.83-6.33,7.29-9.48-1.26,2.66-2.49,5.32-3.71,7.94,1.44-2.41,2.84-4.83,4.27-7.21-.49,2-1,4-1.47,6.05l3.15-6.61c-.46,2-.91,4-1.37,5.95,1.47-2.41,3-4.83,4.48-7.28-.81,2.31-1.61,4.58-2.42,6.89a1.1,1.1,0,0,1,.28-.28c1.3-2.24,2.63-4.48,3.92-6.72-.6,2-1.23,4-1.82,5.91,1.51-2.73,3-5.49,4.55-8.26-.7,2-1.44,4-2.17,5.95,1.51-2.87,3-5.7,4.48-8.57-.74,2.24-1.47,4.48-2.17,6.72.95-1.85,1.93-3.71,2.87-5.56-.7,2.2-1.44,4.37-2.14,6.58,1.26-2.34,2.49-4.69,3.75-7-.7,2.31-1.44,4.65-2.17,7,1.51-2.45,3-4.93,4.55-7.38l-1.58,5.77c1.12-2,2.24-4,3.4-6-.56,1.78-1.09,3.57-1.65,5.35,1.33-2.41,2.66-4.86,4-7.31-.95,2.34-1.86,4.72-2.8,7.1,1.68-2.27,3.33-4.55,5-6.86-.42,2.27-.81,4.55-1.23,6.79l3.15-6.61c-.81,2.52-1.61,5-2.45,7.52,1.33-2.17,2.63-4.34,3.92-6.47-.67,1.79-1.3,3.57-2,5.35,1.44-2.06,2.84-4.13,4.27-6.19-.67,2.06-1.3,4.13-2,6.19Z" transform="translate(0)"/>
        <path class="cls-1" d="M1588.38,1169.27l5.6-3.08-4.62,5,5.32-4.3c-.74,1.5-4.59,6.61-6.06,10.92,1.47-2.66,7.36-7,11.14-8-.56,1.68-1.16,3.36-1.75,5,1.4-.59,2.77-1.19,4.13-1.78-.07,1-.18,2.13-.25,3.18,3.89,1.85,7.78,3.71,11.63,5.56-.6-1.68-1.19-3.36-1.82-5-22.73-28.79-43.4-36.73-62-24,2.73-.46,4.83-1.36,7.57-1.82-2.31,1.26-4,2.9-6.34,4.16l10.51-4.51c-2.17,1.86-4.31,3.71-6.48,5.56l6.79-4.37c-1.23,1.75-2.42,3.5-3.61,5.25,1.79-1.54,3.61-3.08,5.43-4.58l-3.47,5.25,7-4.3c-1.61,1.79-3.22,3.61-4.83,5.39l.39-.07,6.23-4.13c-1.3,1.64-2.59,3.25-3.89,4.87l7.43-5.25c-1.44,1.54-2.84,3.08-4.27,4.58,2.49-1.85,5-3.74,7.43-5.63-1.51,1.82-3,3.6-4.52,5.42,1.61-1.22,3.22-2.45,4.83-3.71-1.51,1.79-3,3.57-4.45,5.32,2.07-1.5,4.13-3,6.2-4.55l-4.62,5.67c2.35-1.47,4.73-2.94,7.07-4.37-1.19,1.61-2.38,3.25-3.61,4.86l5.5-3.78-3.5,4.44c2.17-1.57,4.31-3.15,6.48-4.76-1.75,1.82-3.5,3.6-5.25,5.42,2.45-1.19,4.87-2.35,7.32-3.5-1.19,2.1-2.38,4.16-3.57,6.23,1.82-1.51,3.61-3,5.43-4.58-1.68,2-3.36,4-5.08,6,2.07-1.26,4.13-2.55,6.17-3.85l-3.85,4.16c2.14-1.08,4.27-2.2,6.41-3.32-1.37,1.68-2.73,3.36-4.13,5Z" transform="translate(0)"/>
        <path class="cls-1" d="M1617.87,1181.94c9.28,22.46,11.21,42.79.6,59.41l3.68-10.39-5.08,8.5,2.28-6.82-3.5,4.55,3.5-9.87-3.71,7.63,1.93-6.75-2.77,2.69,2.73-4.72-4.8,2.13,7.74-11.72-4.24,4.72,1.4-2.69-6.2,4.06,3.68-3.81-4.9,1.89,4.52-6.16-4.83,2.38,4.59-5.49-4.34,3.67,4-5.84-4.24,2.38,3.68-6.68-5.11,2.17,4.73-6.79-4.73,2.8,4.1-6.05-4,2.9,3.5-5.63-3.36,3.74,3.43-5.53-2.66,1.37,5.36-5.32-5.39,2.1.25-.28Z" transform="translate(0)"/>
        <path class="cls-1" d="M1644.21,1165.88l-4.52-2.73c1.16,1.33,2.31,2.7,3.47,4-1.37-1.19-2.77-2.38-4.17-3.57.81,1.85,1.58,3.71,2.38,5.56-.42.35-.17.21-.77.38-2.1-1.43-4.2-2.87-6.34-4.3.35,1.26.67,2.52,1,3.74-1.12-.56-2.24-1.09-3.36-1.64-.07.77-.11,1.54-.18,2.31L1621,1172.6c.7-1.15,1.4-2.31,2.14-3.46q34.31-27.81,56.46-11.58c-2.31-.59-4.06-1.4-6.37-2,1.86,1.12,3.19,2.45,5,3.57-2.87-1.4-5.74-2.8-8.62-4.16,1.68,1.51,3.33,3,5,4.55-1.82-1.26-3.61-2.48-5.39-3.74.84,1.36,1.68,2.73,2.56,4.06-1.4-1.26-2.84-2.52-4.24-3.78.81,1.36,1.65,2.73,2.45,4.09l-5.6-3.71,3.57,4.3-.32-.1c-1.65-1.15-3.29-2.35-4.94-3.5.95,1.26,1.89,2.55,2.84,3.81-2-1.47-3.92-2.94-5.85-4.45,1.05,1.22,2.1,2.48,3.15,3.71l-5.81-4.72c1.12,1.44,2.21,2.87,3.33,4.27-1.26-1-2.52-2-3.75-3.08,1.09,1.4,2.17,2.83,3.26,4.23-1.65-1.3-3.26-2.55-4.87-3.85,1.12,1.51,2.24,3,3.36,4.48-1.89-1.26-3.78-2.52-5.64-3.78.84,1.29,1.72,2.55,2.56,3.81-1.44-1-2.87-2.13-4.31-3.18.84,1.15,1.68,2.31,2.52,3.5-1.68-1.33-3.4-2.66-5.11-4,1.33,1.44,2.66,2.87,4,4.34l-6-3.15c.81,1.58,1.61,3.18,2.45,4.76-1.44-1.26-2.84-2.52-4.24-3.78l3.75,4.79c-1.65-1.12-3.29-2.21-4.94-3.32l2.91,3.32-5.22-2.94c1,1.29,2,2.62,3,4Z" transform="translate(0)"/>
        <path class="cls-1" d="M1617.24,1170.64c23.43-6.4,43.85-5.84,59.09,6.79l-13.84-2.62,7.11,4.62-6.48-2.73,2.31,3.08-4.34-3.29,1.54,5-10.68-9.13,4.17,4.79-2.52-1.75,3.26,6.65-3.29-4.09,1.26,5.07-5.57-5.25,1.75,5.11-4.9-5.25,3.15,4.79-5.32-4.65,1.86,4.51-6.2-4.51,1.54,5.35-6.16-5.53,2.17,5-5.5-4.83,2.38,4.34-5.15-4.13,3.29,3.78-5.08-4.06,1.05,2.8-4.62-6,1.4,5.63-.24-.28Z" transform="translate(0)"/>
        <path class="cls-1" d="M1612.58,1174.76c7.88-23,19.86-39.5,38.84-45l-7.71,5.53,5-.38-7.18,4.79,7.81-3.29-5.92,3.81,3.85-.18-5.15,1.75,5,1.54-13.59,3.67,6.3-.73-2.84,1.12,7.36,1-5.29.42,4.94,1.82-7.5,1.64,5.22,1.4-7.08,1.09,5.71.1-6.87,1.79,4.8,1-7.22,2.55,5.29,1.79-8,2,5.39,1-7.11,1.82,4.94.49-6.34,2,5-.63-6.23,1.92,2.91.7-7.57.46,5.43,2-.35,0Z" transform="translate(0)"/>
        <path class="cls-1" d="M1608.24,1174.8c-.52-24.28,5-43.94,20.95-55.63l-5.11,7.42,3.89-1.4-4.69,6.75,6.2-5.77-4.2,5.6,3.54-1.47-4.24,3.39,5.25-.24-11.49,8.12,5.67-2.87-2.28,2,7.25-1.57-4.8,2.2,5.22,0-6.45,4.13,5.39-.49-6.27,3.46,5.39-1.85-5.81,4,4.83-.7-5.88,4.9,5.57-.18-6.83,4.62,5.39-.91-6,4.16,4.8-1.22-5.29,4,4.48-2.31-5.18,4,3-.14-6.93,3.18H1619Z" transform="translate(0)"/>
        <path class="cls-1" d="M1612.58,1176.41c-4.9-23.79-14.71-41.78-32.85-49.61l6.52,7.17-2.91-.63,5,4.62-7.36-4.23,5.39,4.51-3.82-.66,4.9,2.38-5.15.91,13,5.35-6.17-1.5,2.66,1.44-7.39.1,5.15,1.08-5.11,1.19,7.22,2.59-5.36.73,6.9,2-5.71-.63,6.58,2.66-4.87.35,6.83,3.46-5.46,1.08,7.71,3-5.5.31,6.83,2.69-5-.14,6,2.73-4.87-1.22,6,2.69-3,.32,7.43,1.4-5.64,1.29.35.11Z" transform="translate(0)"/>
        <path class="cls-1" d="M1608.52,1176.06c-20.56,12.95-34,28.34-35,48.07l3.26-7.91.35,5.7,3.82-9.72-1.4,8.33,2.35-6.58.7,3.78.53-5.42,2.66,4.51.46-14,.74,6.3.42-3,2.7,6.93-.77-5.21,2.87,4.37-.1-7.66,2.59,4.76-.56-7.17,1.4,5.56.17-7.07,2.07,4.41.88-7.59,2.91,4.72.11-8.26,2.21,5,.17-7.31,1.58,4.69.46-6.61.53,5,.46-6.47,1.37,2.66-1.3-7.45,3.19,4.83,0-.35Z" transform="translate(0)"/>
        <polygon class="cls-1" points="1612.41 1170.25 1632.27 1189.84 1622.08 1182.32 1628.41 1189.25 1619.8 1183.81 1623.76 1189 1623.16 1189 1616.47 1183.95 1616.58 1184.32 1619.1 1189.59 1615.28 1185.88 1616.47 1193.06 1612.72 1187.08 1611.32 1199.64 1609.89 1188.27 1608.73 1201.22 1606.92 1188.16 1605 1198.2 1605 1188.76 1602.12 1195.09 1603.2 1186.97 1596.96 1198.31 1599.34 1191.14 1592.9 1202.02 1596.37 1191.73 1590.03 1199.64 1594.68 1191.38 1588.48 1196.77 1609.64 1170.5 1612.41 1170.25"/>
      </g>
      <g>
        <path class="cls-1" d="M1515.35,1337.59c0-33-1.79-66.06,0-99,1.16-20.75,6.37-41,8.76-61.65,1.16-10.15,1.23-20.36,1.86-30.51-1.05-1.22-2.8-1.29-5-.63-.42,11,.21,22.08-1.26,33-2.28,17-8.27,33.38-10,50.45-3.5,35.16-3.57,71.72-5.43,107,1.23,1.75,6.37,2.21,11,1.33Z" transform="translate(0)"/>
        <path class="cls-1" d="M1564.67,1153.95c-1-2.83-2-5.63-2.94-8.47.07,3,.11,6,.18,9-.53-3-1.05-6.12-1.58-9.2-1,3.29-2,6.54-2.94,9.83-.91,0-.46.07-1.4-.31-1.19-4.16-2.42-8.29-3.61-12.46-.91,2-1.86,4-2.8,5.91-.88-1.92-1.72-3.88-2.59-5.81-.91.94-1.79,1.89-2.7,2.83q-8.56-3.88-17.16-7.77c2.21-.74,4.38-1.44,6.55-2.17,50,.6,78.63,16,86.2,46.08-2.38-3.29-3.78-6.23-6.16-9.52,1.26,3.5,1.47,6.65,2.73,10.15-2.24-4.93-4.48-9.87-6.69-14.8.49,3.78,1,7.56,1.54,11.37-1-3.6-2-7.17-2.94-10.74-.39,2.7-.74,5.39-1.12,8.08-.46-3.15-.91-6.33-1.4-9.48-.39,2.62-1,5.28-1.38,7.94-1.09-3.64-2.44-7.28-3.44-10.92V1173a.91.91,0,0,0-.16-.46c-.88-3.32-1.68-6.65-2.55-10-.17,2.73-.28,5.42-.42,8.12-.95-4.06-1.87-8.12-2.82-12.14.07,2.73.11,5.49.19,8.26-.84-4.16-1.68-8.33-2.48-12.46-.11,3-.21,6.12-.31,9.17l-1.58-8.08q-.16,4.51-.31,9c-.7-3.43-1.44-6.86-2.17-10.29-.14,3.18-.31,6.33-.46,9.52-1.09-3.71-2.21-7.38-3.29-11.06-.24,2.59-.52,5.18-.77,7.77-.74-2.94-1.44-5.91-2.17-8.89-.17,2.45-.32,4.9-.49,7.35-.77-3.6-1.54-7.17-2.31-10.74.14,3.32.31,6.61.46,9.94-1.44-3.53-2.91-7-4.38-10.57-.67,2.94-1.33,5.91-2,8.85-.49-3.15-.95-6.33-1.4-9.48q-.16,5.14-.31,10.29c-.95-3.22-1.89-6.44-2.8-9.66,0,2.48.11,5,.14,7.45-1.19-3.15-2.38-6.33-3.57-9.48-.11,2.83-.25,5.63-.35,8.47Z" transform="translate(0)"/>
        <path class="cls-1" d="M1537.39,1135.68c27.78,15.19,46.37,34.18,49.24,59.76l-5.08-10.78-.74,7-4.8-11.2,2.49,10.74-3.57-8.4-.63,5-1.09-7-3.12,6.09-1.72-18.23-.45,8.26-.81-3.88-2.94,9.17.63-6.86-3.43,5.91-.49-9.94-2.94,6.37.14-9.34-1.4,7.31-.77-9.17-2.35,5.91-1.72-9.83-3.4,6.4-.81-10.74-2.49,6.68-.77-9.48-1.72,6.23-1.09-8.57-.32,6.54-1.09-8.4-1.58,3.57,1.1-9.8-3.7,6.54v-.49Z" transform="translate(0)"/>
        <path class="cls-1" d="M1490.8,1144.61c1.19-2.62,2.42-5.28,3.61-7.91-.56,2.94-1.16,5.91-1.75,8.85.95-2.94,1.86-5.88,2.8-8.82.11,3.32.21,6.68.32,10,.63.14.28.14,1.05-.11,1.61-3.92,3.22-7.84,4.8-11.79l.95,6.19c.95-1.79,1.93-3.57,2.91-5.35.46,1.05.91,2.1,1.4,3.15l13.59-5.39c-1.4-1-2.84-2-4.24-3q-53.49-9-69.7,34c2.28-2.9,3.82-5.63,6.1-8.54-1.51,3.25-2.28,6.33-3.78,9.59l7.46-13.64c-1.05,3.64-2.1,7.31-3.19,11,1.37-3.36,2.73-6.75,4.06-10.15-.21,2.69-.46,5.39-.7,8.08l2.73-9.13c-.18,2.66-.35,5.32-.56,7.94,1.44-3.39,2.87-6.82,4.31-10.25-.56,3.08-1.16,6.19-1.72,9.31l.32-.42,3.68-9.45c-.35,2.7-.74,5.35-1.12,8,1.4-3.88,2.8-7.73,4.2-11.58-.53,2.69-1.09,5.39-1.61,8.08,1.33-4,2.7-7.94,4-11.9-.49,3-.95,6-1.44,9.06.84-2.59,1.72-5.18,2.59-7.77-.49,3-.95,5.95-1.44,8.92,1.16-3.25,2.28-6.54,3.43-9.8-.49,3.11-.95,6.26-1.4,9.38,1.44-3.46,2.87-7,4.34-10.43-.28,2.59-.6,5.18-.88,7.77,1.05-2.83,2.1-5.63,3.19-8.46-.35,2.45-.67,4.86-1,7.28,1.19-3.43,2.42-6.86,3.61-10.25-.7,3.22-1.44,6.47-2.14,9.73,1.68-3.29,3.36-6.54,5-9.83-.07,3-.14,6-.17,9,.91-3,1.82-6.12,2.73-9.17-.56,3.39-1.12,6.79-1.65,10.15,1.23-3,2.49-6.09,3.75-9.13l-1.47,7.35c1.4-3,2.84-5.91,4.27-8.89-.46,2.8-.88,5.6-1.3,8.36Z" transform="translate(0)"/>
        <path class="cls-1" d="M1493.35,1156.64q.16-4.36.32-8.71c.6,3,1.19,5.91,1.79,8.85-.28-3.08-.56-6.12-.81-9.2,1.37,3,2.77,6.09,4.13,9.13.63-.14.32,0,.91-.53,0-4.23,0-8.46,0-12.7,1.05,1.79,2.14,3.57,3.22,5.35.18-2,.39-4.06.6-6.09l2.52,2.41q5.25-5.14,10.51-10.22l-5.08-1.15c-35.24,8.15-52.29,27.54-51.38,58.08,1-3.57,1.37-6.65,2.38-10.21-.14,3.57.35,6.72.18,10.32l1.68-15.5c.42,3.78.84,7.59,1.26,11.37-.07-3.67-.11-7.31-.14-11,.81,2.55,1.61,5.14,2.45,7.73-.35-3.15-.67-6.33-1-9.48l2.52,7.55c0-3.71,0-7.42,0-11.12.67,3.08,1.33,6.19,2,9.27,0-.17.07-.35.11-.49-.07-3.39-.14-6.79-.17-10.15.67,2.59,1.33,5.21,2,7.84-.18-4.09-.35-8.19-.56-12.32.56,2.73,1.09,5.43,1.65,8.12-.28-4.2-.56-8.4-.84-12.56.7,3,1.4,5.95,2.14,8.92-.21-2.7-.39-5.42-.6-8.15.7,2.94,1.4,5.88,2.1,8.78-.21-3.46-.36-6.89-.57-10.36.77,3.08,1.33,6.12,2.33,9.2v-11.3c0,2.48,1.45,5,2.15,7.49-.1-3-.22-6-.33-9,.63,2.34,1.26,4.72,1.89,7.07-.21-3.6-.42-7.24-.6-10.85.56,3.29,1.15,6.54,1.75,9.83.28-3.67.56-7.35.88-11,1.08,2.8,2.17,5.56,3.29,8.36-.35-3.15-.67-6.33-1-9.48.81,3.32,1.58,6.65,2.38,10,0-3.25,0-6.54,0-9.83.49,2.41,1,4.87,1.44,7.31.21-3.26.38-6.54.56-9.83.67,2.76,1.33,5.49,2,8.22Z" transform="translate(0)"/>
        <path class="cls-1" d="M1489.82,1118.93l7.29-4c-2,2.2-4,4.37-6.06,6.58l7-5.63c-1,2-6,8.64-8,14.24,2-3.46,9.6-9.17,14.54-10.39-.77,2.17-1.51,4.34-2.28,6.51l5.36-2.31c-.11,1.37-.18,2.77-.28,4.16q7.57,3.62,15.17,7.24c-.81-2.2-1.61-4.37-2.42-6.58q-44.4-56.26-80.81-31.31c3.54-.63,6.31-1.78,9.84-2.38-3,1.64-5.22,3.81-8.27,5.42,4.55-2,9.14-3.92,13.7-5.84-2.8,2.38-5.6,4.79-8.41,7.21,2.94-1.89,5.88-3.78,8.83-5.71l-4.73,6.82,7.11-5.95-4.52,6.82c3-1.85,6.06-3.74,9.11-5.6-2.1,2.35-4.2,4.69-6.27,7l.49-.11,8.13-5.35-5.08,6.33c3.22-2.28,6.44-4.58,9.67-6.86-1.86,2-3.71,4-5.53,6,3.22-2.45,6.44-4.86,9.67-7.31l-5.88,7c2.1-1.61,4.17-3.22,6.27-4.83l-5.78,6.93,8.06-5.95c-2,2.48-4,4.93-6,7.38,3-1.89,6.13-3.78,9.21-5.7-1.58,2.13-3.12,4.27-4.69,6.37,2.38-1.64,4.76-3.29,7.15-4.9-1.54,1.92-3,3.85-4.55,5.77l8.44-6.19c-2.28,2.34-4.55,4.69-6.87,7,3.19-1.51,6.38-3,9.56-4.55-1.58,2.73-3.12,5.42-4.69,8.12,2.38-2,4.73-4,7.11-5.95-2.21,2.59-4.41,5.21-6.62,7.84,2.7-1.68,5.36-3.36,8-5-1.68,1.82-3.33,3.64-5,5.42,2.77-1.43,5.57-2.87,8.37-4.3-1.82,2.17-3.61,4.34-5.39,6.51Z" transform="translate(0)"/>
        <path class="cls-1" d="M1532.2,1139.64c19.48,24.95,29,49.79,21.51,74.38l1-14.38-3.4,12.49.46-9.38-2.8,6.93.95-13.57-2,10.85,0-9.13-2.56,4.3,1.79-6.86-5.25,4.34,5.64-17.39-3.71,7.38.84-3.88-6.37,7.28,3.29-6.05-5.5,4.06,3.54-9.31-5.25,4.69,3.85-8.54-4.2,6.19,2.94-8.75-4.48,4.48,2.31-9.66-5.67,4.48,3.54-10.15-4.94,5.14,3-9-4.06,5,2.42-8.29-2.87,5.88,2.31-8.15-2.84,2.69,4.9-8.57-6.06,4.51.21-.42Z" transform="translate(0)"/>
        <path class="cls-1" d="M1526,1131c28.06-14.66,54.22-19.56,77.09-7.73l-18.32.53,10.33,3.88-9-1.68,3.82,3.26-6.44-3,3.33,6-16.11-8.71,6.62,5-3.68-1.5,6,7.56-5.36-4.3,3,6.12-8.55-5.14,3.68,6-7.71-5.32,5.32,5.25-8.09-4.44,3.64,5.21-9.11-4,3.4,6.4-9.39-5.32,4.2,5.77-8.34-4.62,4.24,4.9-7.74-3.85,5.25,3.88-7.6-3.78,2.14,3.29-7.57-6.37,3.36,6.75-.39-.24Z" transform="translate(0)"/>
        <path class="cls-1" d="M1570.94,1129.25c-1.54-1.72-3-3.43-4.59-5.14.95,2.13,1.86,4.23,2.77,6.37-1.26-2-2.52-4.06-3.78-6.05.25,2.59.49,5.21.74,7.8-.63.28-.28.21-1.09.21-2.07-2.62-4.1-5.21-6.16-7.8-.11,1.68-.17,3.32-.28,5-1.19-1.12-2.35-2.24-3.54-3.36-.35.95-.74,1.86-1.09,2.8l-14.47-.52c1.33-1.15,2.7-2.31,4-3.46q53.54-21.2,74.71,7.63c-2.66-1.61-4.48-3.32-7.15-4.93,1.89,2.1,3,4.27,4.9,6.4l-9.11-8.57c1.47,2.55,2.94,5.07,4.45,7.63-1.75-2.28-3.5-4.52-5.25-6.79l1.58,6.09c-1.26-2.1-2.49-4.23-3.75-6.33.46,2,.95,4,1.44,6-1.86-2.24-3.68-4.51-5.53-6.79.95,2.27,1.86,4.51,2.77,6.75l-.35-.24c-1.58-2.1-3.19-4.2-4.8-6.3.7,2,1.37,3.92,2,5.88-1.82-2.59-3.68-5.21-5.53-7.8.84,1.92,1.68,3.88,2.52,5.81l-5.39-8.12c.81,2.21,1.65,4.41,2.45,6.62-1.16-1.75-2.31-3.54-3.47-5.28l2.42,6.51c-1.51-2.24-3-4.44-4.55-6.68.81,2.31,1.61,4.58,2.45,6.89-1.86-2.31-3.71-4.62-5.57-6.89.56,1.92,1.16,3.81,1.72,5.74-1.37-1.89-2.77-3.78-4.13-5.67l1.79,5.36c-1.58-2.31-3.19-4.65-4.8-7,1.09,2.31,2.17,4.62,3.26,7-2.07-2.1-4.13-4.2-6.2-6.26.38,2.31.77,4.58,1.16,6.89-1.26-2.1-2.52-4.23-3.78-6.33.95,2.45,1.86,4.93,2.8,7.38-1.61-2-3.22-4-4.83-6.05.77,1.79,1.54,3.54,2.31,5.28-1.79-1.89-3.57-3.81-5.32-5.7.74,2,1.47,4.06,2.24,6.09Z" transform="translate(0)"/>
        <path class="cls-1" d="M1522.49,1134.91c-5.15-31.21-1.68-57.59,16.74-75.57l-5.43,11.09,5.46-3.5-5.29,9.94,6.94-8.57-4.41,8,4.31-2.59-4.83,5.18,6.69-1.29-13.31,12.6,6.79-4.72-2.59,3,9.07-3.36-5.78,3.74,6.8-.95-7.57,6.51,6.83-1.61-7.43,5.63,6.62-3.39-6.76,6.26,6.09-1.82-6.65,7.42,7.15-1.26-8,7.24,6.79-2.17-7,6.47,6-2.48-6.1,6.12,5.36-3.78-6,6.05,3.78-1-8.41,5.18,7.46-1.08-.39.28Z" transform="translate(0)"/>
        <path class="cls-1" d="M1523.13,1129.49c15.31-27.71,34.4-46.29,60-49.05l-10.61,5,5.29.94-9.67,4.54,10.75-2.45-8.41,3.57,5,.63-7,1,6.06,3.15-18.25,1.64,8.27.49-3.89.77,9.18,3-6.87-.66,5.92,3.46-10,.42,6.38,3-9.35-.17,7.32,1.43-9.18.74,5.92,2.34-9.84,1.68,6.37,3.46-10.75.73,6.69,2.52-9.49.73,6.23,1.75-8.58,1,6.55.35-8.41,1.05,3.57,1.57-9.81-1L1539,1131h-.46Z" transform="translate(0)"/>
        <path class="cls-1" d="M1521.76,1137.12c5.15-31.24,1.58-57.66-16.81-75.68l4.59,11.75-3.26-2.1,4,8-6.94-8.61,4.41,8-4.31-2.59,4.83,5.18-6.69-1.29,13.28,12.59-6.76-4.72,2.56,3-9-3.32,5.78,3.71-6.79-.94,7.57,6.51-6.86-1.61,7.46,5.63-6.62-3.39,6.76,6.26-6.1-1.78,6.66,7.38-7.15-1.22,8,7.21-6.8-2.13,7,6.44-6-2.48,6.09,6.16-5.36-3.81,6,6.05-3.78-1,8.41,5.18-7.46-1.09.35.28Z" transform="translate(0)"/>
        <path class="cls-1" d="M1515.45,1132.64c-19.44,24.95-29,49.79-21.47,74.38l.49-11.12,2.94,6.82.35-13.61,2,10.85-.07-9.13,2.56,4.34-1.79-6.89,5.29,4.34-5.64-17.39,3.68,7.38-.81-3.88,6.34,7.28-3.29-6.05,5.5,4.1-3.5-9.34,5.25,4.69-3.85-8.5,4.17,6.16-2.91-8.75,4.48,4.51-2.31-9.69,5.67,4.51-3.54-10.18,4.94,5.14-3-9,4,5-2.38-8.29,2.87,5.88-2.35-8.15,2.87,2.69-4.9-8.57,6,4.51-.18-.42Z" transform="translate(0)"/>
        <polygon class="cls-1" points="1525.44 1126.8 1551.29 1152.34 1538.05 1142.51 1546.31 1151.57 1535.07 1144.84 1540.22 1152 1539.45 1152 1530.73 1145.01 1530.87 1145.32 1534.16 1152.1 1529.15 1147.23 1530.73 1156.56 1525.82 1148.74 1524 1165.11 1522.14 1150.31 1520.64 1167.14 1518.37 1150.13 1516 1163.22 1516 1150.94 1512.14 1159.19 1513.48 1148.59 1505.36 1163.39 1508.46 1154.05 1500.02 1168.22 1504.53 1154.82 1496.26 1165.11 1502.36 1154.37 1494.26 1161.37 1521.83 1127.11 1525.44 1126.8"/>
      </g>
      <g>
        <path class="cls-1" d="M1795.89,1441.56c0-46.71-.81-86.17-3.33-132.81-1.61-29.32,8.3-64.73,4.94-93.91-1.65-14.31-1.75-28.79-2.66-43.17,1.51-1.68,4-1.82,7.08-.87.6,15.57,2.17,32.08,4.27,47.54,3.22,24-3,63.71-.56,87.85,5,49.75,3.26,83.55,5.92,133.51-1.75,2.48-9,3.11-15.66,1.85Z" transform="translate(0)"/>
        <path class="cls-1" d="M1756.35,1176.81c1.37-4,2.77-8,4.17-12-.07,4.23-.14,8.5-.24,12.77l2.21-13c1.4,4.65,2.8,9.27,4.2,13.89,1.3,0,.6.1,2-.42q2.52-8.82,5.08-17.63c1.3,2.76,2.63,5.56,4,8.36,1.23-2.73,2.45-5.49,3.68-8.22l3.82,4q12.14-5.51,24.27-11c-3.08-1-6.2-2.06-9.28-3.11q-106,1.31-122,65.22c3.36-4.62,5.32-8.82,8.72-13.44-1.79,4.93-2.1,9.41-3.89,14.35,3.19-7,6.34-14,9.49-21-.74,5.39-1.47,10.74-2.21,16.09l4.2-15.22c.53,3.85,1,7.66,1.54,11.48l2-13.44c.56,3.74,1.42,7.49,2,11.23,1.54-5.14,2.89-10.29,4.89-15.43v13.43a1.29,1.29,0,0,1,.19-.66c1.26-4.69,2.36-9.37,3.62-14.1.21,3.85.35,7.66.6,11.48,1.33-5.74,2.59-11.48,3.93-17.18-.07,3.88-.16,7.77-.23,11.65,1.16-5.88,2.34-11.72,3.53-17.6.14,4.3.28,8.64.42,13l2.2-11.44c.14,4.23.32,8.5.45,12.77,1-4.86,2.07-9.69,3.08-14.55.21,4.48.42,9,.67,13.43l4.62-15.64c.38,3.67.74,7.35,1.12,11,1-4.16,2-8.36,3.08-12.56.21,3.46.42,6.93.67,10.36,1.09-5.07,2.21-10.11,3.29-15.18-.21,4.69-.46,9.38-.67,14.1,2.07-5,4.13-10,6.16-15,1,4.16,1.93,8.36,2.87,12.53l2-13.44c.14,4.87.28,9.69.46,14.55,1.3-4.55,2.63-9.1,4-13.64-.07,3.5-.14,7-.21,10.57,1.68-4.48,3.36-9,5.08-13.43.14,4,.28,8,.46,12Z" transform="translate(0)"/>
        <path class="cls-1" d="M1790,1155.72c-42.1,15.39-72.15,38.07-81.54,73.26l9.35-14-.49,10,9.11-14.66-5.74,14.52,6.8-11-.17,7.1,3-9.55,3.08,9.13,6.27-25.12-1.09,11.65,1.89-5.28,2.21,13.47.6-9.69,3.54,9,2.77-13.86,2.77,9.55,1.79-13.09.38,10.53,3-12.7,2,8.78,4.45-13.37,3.47,9.66,3.36-14.87,2.07,9.9,3.08-13.12,1.09,9.06,3.36-11.76-.95,9.2,3.29-11.51,1.44,5.32.52-14,3.85,10,.11-.66Z" transform="translate(0)"/>
        <path class="cls-1" d="M1840.1,1181.61c-1-4-2-8-3-12,0,4.27.11,8.5.14,12.77-.53-4.34-1.05-8.68-1.58-13l-3,13.86c-.91,0-.42.11-1.44-.42l-3.68-17.63c-.95,2.8-1.89,5.6-2.87,8.36-.88-2.73-1.75-5.46-2.66-8.22-.91,1.37-1.82,2.69-2.77,4.06l-17.55-11c2.24-1.05,4.48-2.07,6.72-3.08q76.71,1.26,88.23,65.18c-2.42-4.62-3.85-8.82-6.3-13.43,1.3,4.93,1.54,9.41,2.8,14.31q-3.42-10.44-6.86-20.92c.52,5.35,1.09,10.74,1.61,16.09l-3-15.22c-.35,3.85-.74,7.66-1.12,11.47-.46-4.48-.95-9-1.44-13.43-.42,3.74-.65,7.49-1.07,11.23q-1.68-7.71-3.17-15.43v13.44c0-.21-.41-.42-.51-.66-.91-4.69-1.92-9.38-2.79-14.1-.17,3.85-.4,7.66-.54,11.47-.95-5.74-2-11.47-2.9-17.18,0,3.88.09,7.77.13,11.65-.84-5.88-1.69-11.72-2.56-17.6-.11,4.3-.21,8.64-.32,13l-1.58-11.44c-.11,4.23-.21,8.5-.32,12.77-.77-4.86-1.51-9.69-2.24-14.55-.18,4.48-.32,9-.49,13.47-1.12-5.25-2.24-10.46-3.33-15.68-.28,3.67-.56,7.35-.81,11-.74-4.16-1.51-8.36-2.24-12.56-.18,3.46-.32,6.93-.49,10.36-.77-5-1.58-10.11-2.38-15.19.18,4.69.32,9.41.49,14.1-1.51-5-3-10-4.48-15-.7,4.16-1.37,8.36-2.07,12.56-.49-4.48-1-9-1.44-13.47-.11,4.86-.21,9.72-.32,14.55-1-4.55-1.93-9.1-2.87-13.65,0,3.5.11,7,.14,10.57l-3.68-13.44q-.16,6-.32,12Z" transform="translate(0)"/>
        <path class="cls-1" d="M1839.5,1169l-6.83-10.29c1.47,4,2.91,8,4.38,12-1.93-3.92-3.89-7.8-5.81-11.72.6,4.69,1.16,9.38,1.75,14.1-.88.31-.39.24-1.51.07-3.12-5.14-6.2-10.29-9.32-15.43,0,2.94,0,5.91.07,8.85-1.75-2.28-3.5-4.58-5.25-6.86l-1.26,4.72c-6.73-1.54-13.49-3-20.21-4.58,1.75-1.71,3.54-3.43,5.29-5.14q72.82-24.25,104.94,32.26c-3.85-3.57-6.58-7-10.44-10.6,2.87,4.23,4.59,8.36,7.43,12.6q-6.73-8.76-13.45-17.46c2.28,4.86,4.59,9.76,6.87,14.62q-4-6.67-7.92-13.33c.91,3.71,1.82,7.45,2.77,11.16-2-4.06-3.89-8.12-5.85-12.18.84,3.67,1.68,7.35,2.56,11l-8.3-13.43c1.47,4.23,3,8.43,4.45,12.67a6.35,6.35,0,0,0-.49-.53l-7.25-12.38c1.12,3.64,2.24,7.31,3.36,10.95q-4.26-7.61-8.44-15.25c1.33,3.67,2.7,7.31,4,11q-4.1-7.92-8.27-15.78c1.33,4.09,2.7,8.22,4,12.35-1.79-3.43-3.54-6.86-5.32-10.29,1.33,4.06,2.63,8.12,4,12.18-2.31-4.34-4.62-8.64-6.94-13,1.33,4.27,2.66,8.57,4,12.84-2.77-4.55-5.57-9.1-8.34-13.64.95,3.53,1.93,7.1,2.91,10.63-2.1-3.67-4.2-7.38-6.31-11.09,1,3.32,2,6.61,3,9.94-2.45-4.51-4.87-9-7.32-13.54l5.15,13.12c-3.08-4.2-6.13-8.43-9.21-12.63.74,4.16,1.47,8.36,2.24,12.53-2-4.06-3.89-8.15-5.85-12.21,1.51,4.62,3,9.24,4.55,13.82-2.42-4-4.83-7.94-7.25-11.93,1.23,3.32,2.42,6.61,3.64,9.94-2.63-3.81-5.29-7.63-7.92-11.48,1.23,3.81,2.45,7.63,3.68,11.41Z" transform="translate(0)"/>
        <path class="cls-1" d="M1839.92,1142.14c-3.47-1.89-6.9-3.81-10.37-5.7l8.58,9.31-9.88-8c1.4,2.8,8.48,12.24,11.21,20.19-2.73-5-13.56-13-20.56-14.73,1.09,3.08,2.14,6.16,3.22,9.24-2.52-1.12-5-2.21-7.6-3.32.17,2,.32,4,.46,5.91-7.18,3.43-14.33,6.82-21.47,10.25,1.12-3.11,2.24-6.19,3.4-9.31q62.84-79.61,114.4-44.33c-5-.87-8.93-2.48-14-3.36,4.27,2.31,7.43,5.39,11.7,7.7-6.45-2.76-12.89-5.56-19.37-8.33,4,3.43,8,6.82,11.91,10.25l-12.47-8.08c2.21,3.22,4.45,6.44,6.66,9.66-3.36-2.8-6.69-5.63-10.05-8.43l6.41,9.66c-4.31-2.62-8.62-5.28-12.89-7.91,2.94,3.32,5.92,6.65,8.86,10l-.7-.17-11.49-7.59c2.38,3,4.76,6,7.18,9-4.55-3.25-9.11-6.47-13.66-9.72,2.59,2.83,5.22,5.67,7.81,8.5q-6.83-5.19-13.7-10.39c2.77,3.32,5.57,6.65,8.34,10l-8.86-6.82c2.73,3.29,5.46,6.54,8.2,9.8-3.82-2.8-7.64-5.6-11.42-8.43,2.84,3.5,5.64,7,8.48,10.46q-6.51-4-13-8c2.21,3,4.41,6,6.62,9-3.36-2.31-6.73-4.65-10.09-7,2.14,2.73,4.31,5.46,6.44,8.19q-6-4.41-12-8.75c3.22,3.29,6.48,6.61,9.7,9.94l-13.48-6.4c2.17,3.81,4.38,7.63,6.58,11.47-3.33-2.83-6.69-5.63-10-8.47l9.35,11.13c-3.78-2.38-7.57-4.76-11.35-7.1,2.35,2.55,4.73,5.11,7.11,7.66-4-2-7.92-4.06-11.84-6.12,2.52,3.08,5.08,6.16,7.64,9.24Z" transform="translate(0)"/>
        <path class="cls-1" d="M1785.53,1165.48c-17.09,41.39-20.7,78.86-1.09,109.58l-6.79-19.21,9.39,15.71-4.24-12.63,6.52,8.4-6.48-18.16,6.83,14.06-3.54-12.46,5.11,4.93-5-8.68L1795,1251l-14.29-21.59,7.85,8.68-2.59-5,11.42,7.49-6.76-7,9,3.46-8.37-11.37,9,4.41-8.51-10.18,8.06,6.82-7.29-10.81,7.81,4.44-6.83-12.31,9.46,4-8.69-12.53,8.69,5.14-7.57-11.12,7.43,5.32-6.45-10.39,6.16,6.93-6.27-10.22,4.9,2.55-9.91-9.83,9.91,3.88-.42-.52Z" transform="translate(0)"/>
        <path class="cls-1" d="M1736.94,1135.84c2.77-1.68,5.57-3.36,8.34-5-2.14,2.45-4.27,4.93-6.41,7.42,2.56-2.2,5.15-4.37,7.71-6.58-1.47,3.39-2.91,6.82-4.34,10.25.74.63.28.35,1.37.7,3.89-2.62,7.77-5.28,11.66-7.91-.6,2.31-1.16,4.58-1.75,6.89l6.2-3c.11,1.4.17,2.83.28,4.23,6.59,1.82,13.17,3.6,19.76,5.42-1.33-2.13-2.63-4.27-4-6.37q-63.26-51.33-104.13-21.34c4.27-1.08,7.5-2.59,11.77-3.67-3.47,2-5.89,4.51-9.32,6.58,5.29-2.59,10.58-5.14,15.87-7.73-3,2.8-6.13,5.63-9.21,8.43l10-6.93c-1.58,2.52-3.15,5-4.73,7.52,2.59-2.31,5.18-4.65,7.78-7-1.51,2.48-3,5-4.48,7.49,3.43-2.27,6.87-4.55,10.33-6.82-2.21,2.66-4.41,5.28-6.62,7.94.18-.07.39-.11.6-.18,3-2.17,6.09-4.34,9.14-6.47-1.75,2.35-3.5,4.72-5.25,7.07,3.61-2.73,7.22-5.46,10.79-8.19-2,2.24-3.89,4.51-5.85,6.79,3.57-2.9,7.15-5.81,10.75-8.68-2.07,2.62-4.1,5.25-6.13,7.87l6.93-5.67c-2,2.59-4,5.18-6,7.77l9-7.07c-2.07,2.73-4.13,5.49-6.23,8.26,3.5-2.31,7-4.65,10.44-7-1.58,2.35-3.19,4.69-4.76,7,2.66-2,5.32-3.92,8-5.88-1.58,2.13-3.15,4.27-4.73,6.44,3.15-2.45,6.3-4.9,9.46-7.38-2.45,2.69-4.9,5.35-7.36,8,3.68-1.92,7.36-3.88,11-5.81-1.51,2.94-3,5.88-4.48,8.82,2.59-2.31,5.18-4.65,7.78-7-2.28,2.94-4.59,5.88-6.9,8.82l9.07-6.12c-1.79,2-3.54,4.09-5.32,6.12,3.19-1.82,6.41-3.6,9.6-5.42l-5.6,7.28Z" transform="translate(0)"/>
        <path class="cls-1" d="M1786.72,1144.59c-43.26-11.79-80.91-10.71-109,12.56l25.5-4.83-13.1,8.5,11.91-5-4.27,5.67,8-6.05-2.8,9.24,19.65-16.86-7.64,8.85,4.62-3.18-6,12.24,6.09-7.59-2.31,9.41,10.26-9.69-3.26,9.41,9-9.69-5.78,8.85,9.84-8.61-3.43,8.33,11.38-8.29-2.8,9.87L1754,1157.5l-4.06,9.27,10.16-8.92-4.38,8,9.53-7.63-6.13,7,9.39-7.49-1.93,5.18,8.55-11.05-2.63,10.32.45-.49Z" transform="translate(0)"/>
        <path class="cls-1" d="M1795.3,1152.25c-14.57-42.33-36.64-72.84-71.66-82.92l14.22,10.18-9.18-.66,13.27,8.82-14.4-6.05,10.86,7-7.08-.35,9.49,3.22-9.21,2.87,25,6.75-11.63-1.33,5.25,2-13.52,1.93,9.7.77-9.07,3.36,13.8,3-9.63,2.59,13.1,2-10.58.21,12.64,3.29-8.83,1.82,13.31,4.76-9.74,3.25,14.82,3.64-9.95,1.89,13.06,3.36-9.11.88,11.7,3.57-9.21-1.12,11.49,3.53-5.39,1.33,14,.8-10.05,3.64.67.14Z" transform="translate(0)"/>
        <path class="cls-1" d="M1803.28,1152.29c1-44.75-9.21-81-38.6-102.55l9.39,13.68-7.15-2.59,8.62,12.45-11.42-10.64,7.78,10.32-6.55-2.76,7.85,6.3-9.67-.49,21.16,15-10.47-5.25,4.24,3.71-13.38-2.87,8.86,4.06-9.67,0,11.87,7.63-9.91-.91,11.56,6.44-9.95-3.46,10.72,7.45-8.93-1.33,10.86,9-10.26-.31,12.65,8.54-10-1.64,11.1,7.66-8.86-2.31,9.74,7.38-8.23-4.23,9.53,7.28-5.5-.63,12.82,5.6-10.65,0,.56.31Z" transform="translate(0)"/>
        <path class="cls-1" d="M1795.3,1155.26c9-43.87,27.15-77,60.6-91.46l-12,13.19,5.36-1.15-9.32,8.54,13.52-7.84-9.88,8.36,7-1.26-9,4.41,9.53,1.68-24,9.9,11.35-2.8-4.94,2.66,13.66.18-9.53,2,9.42,2.17-13.28,4.76,9.88,1.37-12.71,3.67,10.47-1.15-12.12,4.86,9,.7-12.57,6.4,10.05,2-14.22,5.53,10.12.6-12.54,5,9.14-.28-11.14,5,9-2.31-10.93,5,5.5.63L1807,1148.2l10.4,2.34-.63.21Z" transform="translate(0)"/>
        <path class="cls-1" d="M1802.79,1154.63c37.93,23.83,62.63,52.27,64.45,88.66l-6-14.55-.67,10.5-7-17.95,2.59,15.36-4.34-12.18-1.3,7-.95-10-4.9,8.33-.88-25.89-1.37,11.62-.77-5.56-5,12.74,1.47-9.62-5.36,8,.21-14.1-4.73,8.75,1-13.16-2.63,10.22-.32-13-3.78,8.15-1.61-14-5.36,8.71-.21-15.22-4.1,9.24-.28-13.47-2.94,8.64-.81-12.21-1,9.24-.81-12-2.52,4.9,2.38-13.75-5.85,8.92,0-.66Z" transform="translate(0)"/>
        <polygon class="cls-1" points="1795.61 1143.93 1759.01 1180.03 1777.75 1166.18 1766.09 1178.95 1781.95 1169.16 1774.67 1179 1775.79 1179 1788.12 1169.4 1787.91 1169.99 1783.28 1179.65 1790.33 1172.77 1788.12 1185.99 1795.05 1174.96 1797.61 1198.12 1800.27 1177.16 1802.41 1200.99 1806.12 1176.95 1810 1195.46 1810 1178.07 1814.94 1189.72 1812.77 1174.75 1824.18 1195.67 1819.72 1182.48 1831.61 1202.53 1825.19 1183.57 1836.88 1198.12 1828.26 1182.9 1839.75 1192.84 1800.69 1144.35 1795.61 1143.93"/>
      </g>
      <g>
        <path class="cls-1" d="M230.3,1532.23c0-87.78,1.47-162,6.23-249.67,3-55.1-15.59-121.61-9.28-176.47,3.08-26.9,3.33-54.09,5-81.17-2.8-3.18-7.43-3.43-13.28-1.64-1.09,29.25-4.1,60.32-8,89.36-6.09,45.17,5.54,119.79,1,165.14-9.32,93.55-6.16,157.05-11.14,250.93,3.33,4.69,17,5.88,29.46,3.53Z" transform="translate(0)"/>
        <path class="cls-1" d="M304.62,1034.57c-2.63-7.49-5.22-15-7.85-22.5l.42,24c-1.37-8.15-2.77-16.3-4.13-24.46-2.62,8.71-5.25,17.39-7.88,26.1-2.42,0-1.16.21-3.75-.84q-4.73-16.53-9.53-33.13l-7.46,15.74q-3.47-7.72-6.9-15.46l-7.18,7.59q-22.8-10.34-45.6-20.71l17.41-5.77q199.34,2.36,229.25,122.56c-6.34-8.68-10-16.55-16.36-25.26,3.33,9.27,3.92,17.67,7.25,26.94q-8.93-19.68-17.83-39.36c1.37,10.08,2.77,20.15,4.13,30.23l-7.88-28.55c-.95,7.17-1.93,14.34-2.87,21.52-1.26-8.43-2.49-16.83-3.75-25.26-1.09,7-2.68,14.06-3.8,21.13-2.87-9.69-5.16-19.35-9.16-29v25.26a2,2,0,0,0-.37-1.22c-2.35-8.85-4.46-17.67-6.8-26.52-.42,7.17-.72,14.34-1.14,21.55-2.49-10.78-4.91-21.55-7.4-32.33.14,7.31.31,14.66.45,22q-3.31-16.58-6.61-33.13-.42,12.17-.83,24.42c-1.37-7.17-2.76-14.34-4.13-21.52q-.42,12-.84,24c-1.93-9.1-3.85-18.23-5.81-27.32-.39,8.43-.81,16.83-1.23,25.26l-8.72-29.39q-1,10.34-2.07,20.68c-1.93-7.87-3.85-15.71-5.81-23.58-.38,6.47-.81,13-1.23,19.45-2.07-9.52-4.13-19.07-6.23-28.58.42,8.85.84,17.67,1.26,26.52-3.89-9.38-7.74-18.79-11.63-28.16l-5.36,23.62c-1.26-8.43-2.49-16.86-3.75-25.26q-.42,13.65-.84,27.32c-2.49-8.57-5-17.11-7.46-25.68.14,6.61.28,13.26.42,19.87-3.19-8.43-6.34-16.83-9.53-25.26-.28,7.49-.6,15-.88,22.5Z" transform="translate(0)"/>
        <path class="cls-1" d="M241.33,994.93c79.12,29,135.66,71.58,153.31,137.74L377,1106.3l.91,18.82-17.13-27.57,10.82,27.25-12.75-20.68.35,13.37-5.67-18-5.78,17.21L336,1069.46l2,21.9-3.61-9.94-4.13,25.33-1.09-18.26-6.66,16.9-5.18-26-5.25,17.95-3.29-24.63-.81,19.8-5.67-23.86-3.82,16.51L290.15,1060l-6.48,18.12-6.3-27.92-3.92,18.58-5.81-24.67-2,17.07-6.27-22.11,1.79,17.32-6.23-21.66-2.66,10-1-26.21L244,1037.27l-.18-1.22Z" transform="translate(0)"/>
        <path class="cls-1" d="M147.21,1043.6c1.86-7.49,3.75-15,5.64-22.5q-.11,12-.28,24,1.47-12.18,3-24.42c1.89,8.71,3.78,17.39,5.67,26.1,1.75,0,.84.21,2.7-.84q3.47-16.53,6.9-33.13c1.82,5.25,3.61,10.5,5.39,15.74,1.68-5.14,3.36-10.29,5-15.46,1.75,2.55,3.47,5.07,5.22,7.59l33-20.68c-4.2-2-8.41-3.88-12.61-5.81Q62.64,996.56,41,1116.76c4.59-8.71,7.25-16.58,11.84-25.26-2.42,9.24-2.84,17.67-5.25,26.9q6.46-19.68,12.89-39.33c-1,10.08-2,20.15-3,30.23q2.84-14.33,5.68-28.58l2.1,21.52Q66.62,1089.64,68,1077c.77,7.07,1.32,14.1,2.13,21.13,2.1-9.66,4-19.31,6-29v25.26c0-.42.64-.84.85-1.26,1.71-8.82,3.52-17.67,5.24-26.49.28,7.17.66,14.34.94,21.52l5.46-32.29q-.16,11-.3,21.94,2.41-16.53,4.81-33.13c.21,8.15.39,16.3.6,24.46,1-7.21,2-14.38,3-21.55.21,8,.39,16,.6,24,1.4-9.13,2.8-18.23,4.2-27.36.28,8.43.6,16.86.88,25.3q3.15-14.75,6.3-29.42c.53,6.89,1,13.82,1.51,20.71l4.2-23.62c.31,6.51.6,13,.91,19.49,1.51-9.55,3-19.07,4.48-28.58-.28,8.82-.6,17.67-.88,26.48,2.8-9.38,5.57-18.75,8.37-28.13,1.33,7.87,2.63,15.71,3.92,23.58q1.32-12.6,2.7-25.26c.21,9.13.38,18.23.6,27.36,1.79-8.57,3.61-17.14,5.39-25.68-.1,6.61-.21,13.23-.31,19.87,2.31-8.43,4.63-16.83,6.94-25.26.21,7.49.42,15,.63,22.5Z" transform="translate(0)"/>
        <path class="cls-1" d="M148.33,1020q6.41-9.71,12.82-19.35-4.1,11.28-8.27,22.57c3.64-7.38,7.32-14.73,11-22.08-1.09,8.85-2.21,17.67-3.29,26.52,1.64.56.7.45,2.8.1l17.55-29c-.07,5.56-.11,11.09-.14,16.65,3.26-4.3,6.55-8.64,9.84-12.95.8,3,1.57,5.95,2.38,8.89l38-8.57c-3.33-3.22-6.62-6.44-9.95-9.66q-136.81-45.55-197.23,60.6c7.25-6.68,12.36-13.22,19.58-19.91-5.32,7.94-8.55,15.74-13.91,23.65q12.61-16.43,25.25-32.82c-4.31,9.17-8.58,18.33-12.89,27.5,5-8.33,9.91-16.69,14.89-25.05-1.72,7-3.47,14-5.19,21,3.64-7.66,7.29-15.29,11-23-1.61,6.89-3.19,13.82-4.76,20.71q7.78-12.6,15.59-25.26l-8.41,23.83c.31-.31.63-.63,1-.94q6.78-11.65,13.63-23.34c-2.1,6.89-4.24,13.75-6.34,20.64q7.93-14.38,15.83-28.69c-2.52,6.86-5,13.75-7.57,20.61q7.78-14.85,15.55-29.67c-2.52,7.77-5,15.5-7.56,23.27,3.33-6.44,6.65-12.91,10-19.35q-3.67,11.44-7.42,22.88,6.57-12.23,13.06-24.39c-2.52,8-5,16.06-7.57,24.11,5.25-8.54,10.47-17.07,15.73-25.65l-5.46,20c3.92-7,7.88-13.93,11.8-20.89-1.86,6.23-3.75,12.46-5.6,18.65,4.55-8.47,9.14-17,13.73-25.43q-4.83,12.33-9.67,24.7l17.3-23.79c-1.4,7.87-2.8,15.71-4.17,23.58,3.64-7.66,7.28-15.29,10.93-23l-8.51,26q6.78-11.23,13.63-22.43c-2.31,6.19-4.59,12.42-6.9,18.65,5-7.17,9.95-14.38,14.92-21.55-2.31,7.14-4.59,14.27-6.9,21.45Z" transform="translate(0)"/>
        <path class="cls-1" d="M147.53,969.43q9.72-5.35,19.44-10.74-8,8.76-16.08,17.49l18.53-14.94c-2.59,5.18-15.9,23-21.09,37.89,5.18-9.31,25.5-24.42,38.67-27.67q-3,8.66-6,17.32c4.73-2.06,9.49-4.13,14.26-6.19-.28,3.71-.56,7.38-.84,11.09q20.18,9.66,40.35,19.28c-2.1-5.81-4.24-11.65-6.34-17.49q-118.16-149.67-215-83.34c9.46-1.61,16.78-4.65,26.23-6.3-8,4.34-14,10.11-22,14.45q18.18-7.82,36.39-15.6c-7.46,6.4-14.92,12.84-22.38,19.24,7.81-5.07,15.66-10.11,23.47-15.18L42.59,926.88,61.43,911q-6,9.08-12,18.16,12.14-7.4,24.24-14.87C68.09,920.55,62.55,926.78,57,933c.42-.07.88-.17,1.3-.28l21.65-14.27c-4.52,5.63-9,11.27-13.52,16.9l25.71-18.26q-7.36,8-14.75,16,12.87-9.76,25.78-19.52c-5.22,6.26-10.44,12.49-15.66,18.75l16.64-12.84c-5.12,6.16-10.26,12.31-15.38,18.44L110.19,922c-5.32,6.58-10.61,13.12-15.94,19.66,8.16-5,16.32-10.11,24.48-15.15-4.13,5.63-8.3,11.27-12.43,16.9l19-13.09-12.15,15.39q11.3-8.24,22.52-16.48L117.44,948l25.36-12.07q-6.2,10.81-12.44,21.59c6.3-5.28,12.57-10.57,18.88-15.88q-8.77,10.44-17.58,20.89,10.67-6.67,21.33-13.37-6.67,7.24-13.38,14.41,11.14-5.72,22.28-11.48c-4.8,5.77-9.56,11.58-14.36,17.35Z" transform="translate(0)"/>
        <path class="cls-1" d="M249.77,1013.3c32.12,77.81,38.88,148.24,2,205.93l12.82-36.11-17.65,29.53,8-23.69-12.22,15.78,12.15-34.15L242,1197l6.62-23.41-9.6,9.31,9.46-16.34L231.87,1174l26.93-40.58L244,1149.68l4.9-9.37-21.51,14.1,12.75-13.15-17,6.54,15.69-21.41-16.81,8.26L238,1115.57l-15.13,12.8L236.63,1108l-14.75,8.36,12.86-23.16L217,1100.73l16.32-23.55-16.36,9.73,14.29-21-14,10,12-19.56-11.56,13,11.8-19.21-9.25,4.83L239,1036.53l-18.67,7.31.77-1Z" transform="translate(0)"/>
        <path class="cls-1" d="M341.08,957.6l-15.69-9.45c4,4.65,8,9.31,12,14q-7.2-6.24-14.47-12.42,4.1,9.66,8.2,19.28c-1.44,1.19-.6.7-2.63,1.36q-10.93-7.45-21.93-14.9c1.12,4.3,2.24,8.64,3.33,12.95-3.89-1.89-7.78-3.81-11.66-5.74-.18,2.69-.35,5.35-.53,8l-37.13,10.18c2.49-4,5-8,7.43-12Q387,872.46,463.78,928.74c-8-2-14-4.86-22.1-6.86,6.52,3.81,11,8.5,17.55,12.32q-15-7.24-29.88-14.48,8.62,7.92,17.3,15.81-9.35-6.51-18.7-13c2.94,4.69,5.92,9.41,8.86,14.13q-7.3-6.56-14.61-13.09,4.2,7,8.41,14.1c-6.45-4.3-12.93-8.57-19.41-12.88l12.44,14.94-1.09-.32q-8.62-6.14-17.2-12.21c3.29,4.44,6.55,8.89,9.84,13.33l-20.28-15.43q5.52,6.4,11,12.77l-20.21-16.3c3.82,4.93,7.67,9.9,11.53,14.83q-6.52-5.35-13-10.67,5.62,7.29,11.31,14.59c-5.64-4.44-11.24-8.89-16.88-13.3,3.89,5.18,7.81,10.36,11.7,15.53l-19.62-13.12c3,4.44,6,8.85,9,13.26-5-3.71-10-7.38-15-11.09,2.94,4,5.89,8.08,8.83,12.11L355.8,929.93c4.59,5,9.18,10,13.76,15q-10.35-5.46-20.7-11l8.41,16.58q-7.3-6.51-14.61-13.09,6.46,8.29,13,16.55c-5.71-3.81-11.38-7.66-17.06-11.48,3.36,3.85,6.69,7.66,10,11.51-6-3.39-12-6.82-18-10.22,3.5,4.55,7,9.13,10.54,13.71Z" transform="translate(0)"/>
        <path class="cls-1" d="M247.53,974c81.3-22.18,152.08-20.15,204.83,23.58l-48-9.06,24.66,16L406.65,995l8,10.71-15-11.41,5.25,17.35-37-31.7,14.36,16.65-8.69-6,11.35,23.06-11.49-14.27,4.38,17.67-19.33-18.23,6.13,17.7-17-18.16L358.49,1015,340,998.82l6.45,15.64-21.4-15.6,5.25,18.54L309,998.29l7.6,17.39L297.51,999l8.23,15.08-17.93-14.38,11.52,13.09-17.65-14.06,3.64,9.73-16-20.78,4.94,19.42-.87-.91Z" transform="translate(0)"/>
        <path class="cls-1" d="M231.38,988.46c27.39-79.6,68.9-136.94,134.75-155.9l-26.76,19.17,17.27-1.29-25,16.58,27.08-11.34-20.46,13.16,13.34-.6-17.9,6,17.34,5.46-47,12.66,21.86-2.48L316,893.68l25.46,3.6-18.29,1.47,17.09,6.3-26,5.7,18.07,4.9-24.59,3.78,19.86.38L304,926l16.57,3.46-25,8.89,18.29,6.12L286,951.34l18.7,3.53-24.55,6.3,17.09,1.68-22,6.72,17.3-2.13L271,974.08l10.09,2.48-26.23,1.54L273.69,985l-1.22.21Z" transform="translate(0)"/>
        <path class="cls-1" d="M216.35,988.5c-1.82-84.11,17.34-152.26,72.57-192.74l-17.65,25.72,13.45-4.86L268.51,840,290,820l-14.64,19.42,12.33-5.18L273,846l18.14-.87-39.75,28.13L271,863.42l-7.95,7L288.19,865l-16.64,7.66,18.21,0L267.39,887l18.67-1.64-21.79,12L283,890.88l-20.18,14,16.74-2.45-20.35,17,19.3-.59-23.78,16.06,18.78-3.15-20.88,14.41,16.64-4.34L251,955.68l15.52-8-18,13.68,10.33-1.15-24.06,10.5,20-.07-1.05.63Z" transform="translate(0)"/>
        <path class="cls-1" d="M231.41,994.06c-17-82.43-51-144.71-113.94-171.89l22.59,24.77L130,844.81l17.48,16.06L122.1,846.13l18.6,15.67-13.17-2.31,17,8.22-17.9,3.18,45,18.58-21.37-5.25,9.32,5-25.71.31,17.94,3.78L134,897.46l25,9L140.49,909l23.89,6.89-19.72-2.17,22.8,9.17-16.88,1.33,23.61,12-18.91,3.74L182,950.29l-19,1.12,23.57,9.38-17.2-.49,20.95,9.45-16.88-4.3L194,974.78l-10.33,1.15,25.81,4.9-19.54,4.37,1.19.39Z" transform="translate(0)"/>
        <path class="cls-1" d="M217.33,992.9C146,1037.72,99.61,1091.18,96.14,1159.55l11.28-27.39,1.26,19.77,13.21-33.76L117,1147.09l8.16-22.92,2.45,13.12,1.75-18.75,9.28,15.6,1.61-48.63,2.56,21.83,1.47-10.46,9.32,23.93-2.77-18.09,10.09,15.15-.38-26.52,8.9,16.44L167.53,1083l4.9,19.21.6-24.53,7.18,15.36,3-26.31,10.12,16.37.35-28.65,7.67,17.39.56-25.33,5.54,16.27,1.54-22.92,1.86,17.32,1.57-22.5,4.69,9.24-4.45-25.86,11,16.76-.07-1.26Z" transform="translate(0)"/>
        <polygon class="cls-1" points="230.78 972.75 299.61 1040.66 264.38 1014.56 286.34 1038.6 256.49 1020.36 270.15 1039 268.09 1039 244.87 1020.78 245.28 1021.8 254.01 1039.92 240.73 1027.03 244.87 1051.88 231.87 1031.12 227.04 1074.64 222.06 1035.28 218.07 1080.06 211.74 1034.85 205.16 1069.63 205.16 1036.92 195.17 1058.89 198.86 1030.72 177.31 1070.05 185.6 1045.21 163.19 1082.89 175.23 1047.27 153.24 1074.63 169.42 1046.05 147.84 1064.66 221.26 973.56 230.78 972.75"/>
      </g>
    </g>
  </g>
  <g id="Layer_4" data-name="Layer 4">
    <rect class="cls-2" width="2500.94" height="1800"/>
  </g>
</svg>
