<svg xmlns="http://www.w3.org/2000/svg" xmlns:xlink="http://www.w3.org/1999/xlink" viewBox="0 0 2500.94 1800">
  <defs>
    <style>
      .cls-1 {
        fill: url(#radial-gradient);
      }

      .cls-2 {
        fill: url(#radial-gradient-2);
      }

      .cls-3 {
        fill: url(#radial-gradient-3);
      }

      .cls-4 {
        fill: url(#radial-gradient-4);
      }

      .cls-5 {
        fill: url(#radial-gradient-5);
      }

      .cls-6 {
        fill: url(#radial-gradient-6);
      }

      .cls-7 {
        fill: url(#radial-gradient-7);
      }

      .cls-8 {
        fill: url(#radial-gradient-8);
      }

      .cls-9 {
        fill: url(#radial-gradient-9);
      }

      .cls-10 {
        fill: url(#radial-gradient-10);
      }

      .cls-11 {
        fill: url(#radial-gradient-11);
      }

      .cls-12 {
        fill: url(#radial-gradient-12);
      }

      .cls-13 {
        fill: url(#radial-gradient-13);
      }

      .cls-14 {
        fill: url(#radial-gradient-14);
      }

      .cls-15 {
        fill: url(#radial-gradient-15);
      }

      .cls-16 {
        fill: url(#radial-gradient-16);
      }

      .cls-17 {
        fill: url(#radial-gradient-17);
      }

      .cls-18 {
        fill: url(#radial-gradient-18);
      }

      .cls-19 {
        fill: url(#radial-gradient-19);
      }

      .cls-20 {
        fill: url(#radial-gradient-20);
      }

      .cls-21 {
        fill: url(#radial-gradient-21);
      }

      .cls-22 {
        fill: url(#radial-gradient-22);
      }

      .cls-23 {
        fill: url(#radial-gradient-23);
      }

      .cls-24 {
        fill: url(#radial-gradient-24);
      }

      .cls-25 {
        fill: url(#radial-gradient-25);
      }

      .cls-26 {
        fill: url(#radial-gradient-26);
      }

      .cls-27 {
        fill: url(#radial-gradient-27);
      }

      .cls-28 {
        fill: url(#radial-gradient-28);
      }

      .cls-29 {
        fill: url(#radial-gradient-29);
      }

      .cls-30 {
        fill: url(#radial-gradient-30);
      }

      .cls-31 {
        fill: url(#radial-gradient-31);
      }

      .cls-32 {
        fill: url(#radial-gradient-32);
      }

      .cls-33 {
        fill: url(#radial-gradient-33);
      }

      .cls-34 {
        fill: url(#radial-gradient-34);
      }

      .cls-35 {
        fill: url(#radial-gradient-35);
      }

      .cls-36 {
        fill: url(#radial-gradient-36);
      }

      .cls-37 {
        fill: url(#radial-gradient-37);
      }

      .cls-38 {
        fill: url(#radial-gradient-38);
      }

      .cls-39 {
        fill: url(#radial-gradient-39);
      }

      .cls-40 {
        fill: url(#radial-gradient-40);
      }

      .cls-41 {
        fill: url(#radial-gradient-41);
      }

      .cls-42 {
        fill: url(#radial-gradient-42);
      }

      .cls-43 {
        fill: url(#radial-gradient-43);
      }

      .cls-44 {
        fill: url(#radial-gradient-44);
      }

      .cls-45 {
        fill: url(#radial-gradient-45);
      }

      .cls-46 {
        fill: url(#radial-gradient-46);
      }

      .cls-47 {
        fill: url(#radial-gradient-47);
      }

      .cls-48 {
        fill: url(#radial-gradient-48);
      }

      .cls-49 {
        fill: url(#radial-gradient-49);
      }

      .cls-50 {
        fill: url(#radial-gradient-50);
      }

      .cls-51 {
        fill: url(#radial-gradient-51);
      }

      .cls-52 {
        fill: url(#radial-gradient-52);
      }

      .cls-53 {
        fill: url(#radial-gradient-53);
      }

      .cls-54 {
        fill: url(#radial-gradient-54);
      }

      .cls-55 {
        fill: url(#radial-gradient-55);
      }

      .cls-56 {
        fill: url(#radial-gradient-56);
      }

      .cls-57 {
        fill: url(#radial-gradient-57);
      }

      .cls-58 {
        fill: url(#radial-gradient-58);
      }

      .cls-59 {
        fill: url(#radial-gradient-59);
      }

      .cls-60 {
        fill: url(#radial-gradient-60);
      }

      .cls-61 {
        fill: none;
      }
    </style>
    <radialGradient id="radial-gradient" cx="422.66" cy="-6057.63" r="31.57" gradientTransform="translate(0 1104.05) scale(1.4 0.1)" gradientUnits="userSpaceOnUse">
      <stop offset="0" stop-color="#fff"/>
      <stop offset="0" stop-color="#fff"/>
      <stop offset="0.12" stop-color="#fff" stop-opacity="0.77"/>
      <stop offset="0.25" stop-color="#fff" stop-opacity="0.56"/>
      <stop offset="0.37" stop-color="#fff" stop-opacity="0.39"/>
      <stop offset="0.5" stop-color="#fff" stop-opacity="0.25"/>
      <stop offset="0.62" stop-color="#fff" stop-opacity="0.14"/>
      <stop offset="0.75" stop-color="#fff" stop-opacity="0.06"/>
      <stop offset="0.87" stop-color="#fff" stop-opacity="0.02"/>
      <stop offset="1" stop-color="#fff" stop-opacity="0"/>
    </radialGradient>
    <radialGradient id="radial-gradient-2" cx="-1298.39" cy="-3403.77" r="31.57" gradientTransform="translate(103.95 1786.24) rotate(90) scale(1.01 0.14)" xlink:href="#radial-gradient"/>
    <radialGradient id="radial-gradient-3" cx="422.66" cy="487.92" r="17.12" gradientTransform="translate(0 -9.28) scale(1.4 1.01)" xlink:href="#radial-gradient"/>
    <radialGradient id="radial-gradient-4" cx="914.93" cy="-1266.88" r="20.47" gradientTransform="matrix(0.99, -0.71, 0.04, 0.03, -264.47, 1166.46)" xlink:href="#radial-gradient"/>
    <radialGradient id="radial-gradient-5" cx="-494.03" cy="-17018.62" r="20.46" gradientTransform="matrix(0.99, 0.71, -0.06, 0.04, 89.37, 1543.91)" xlink:href="#radial-gradient"/>
    <radialGradient id="radial-gradient-6" cx="422.66" cy="487.92" r="23.52" gradientTransform="translate(0 -9.28) scale(1.4 1.01)" gradientUnits="userSpaceOnUse">
      <stop offset="0.61" stop-color="#fff" stop-opacity="0"/>
      <stop offset="0.65" stop-color="#fff" stop-opacity="0.02"/>
      <stop offset="0.69" stop-color="#fff" stop-opacity="0.06"/>
      <stop offset="0.73" stop-color="#fff" stop-opacity="0.14"/>
      <stop offset="0.75" stop-color="#fff" stop-opacity="0.2"/>
      <stop offset="0.83" stop-color="#fff" stop-opacity="0"/>
    </radialGradient>
    <radialGradient id="radial-gradient-7" cx="1027.28" cy="-8671.66" r="31.57" xlink:href="#radial-gradient"/>
    <radialGradient id="radial-gradient-8" cx="-1565.8" cy="-9313.96" r="31.57" gradientTransform="translate(103.95 1786.24) rotate(90) scale(1.01 0.14)" xlink:href="#radial-gradient"/>
    <radialGradient id="radial-gradient-9" cx="1027.28" cy="220.51" r="17.12" gradientTransform="translate(0 -9.28) scale(1.4 1.01)" xlink:href="#radial-gradient"/>
    <radialGradient id="radial-gradient-10" cx="1531.55" cy="4863.98" r="20.47" gradientTransform="matrix(0.99, -0.71, 0.04, 0.03, -264.47, 1166.46)" xlink:href="#radial-gradient"/>
    <radialGradient id="radial-gradient-11" cx="-255.59" cy="-27499.71" r="20.46" gradientTransform="matrix(0.99, 0.71, -0.06, 0.04, 89.37, 1543.91)" xlink:href="#radial-gradient"/>
    <radialGradient id="radial-gradient-12" cx="1027.28" cy="220.51" r="23.52" xlink:href="#radial-gradient-6"/>
    <radialGradient id="radial-gradient-13" cx="665.17" cy="-3927.38" r="15.78" xlink:href="#radial-gradient"/>
    <radialGradient id="radial-gradient-14" cx="-1080.46" cy="-5774.3" r="15.78" gradientTransform="translate(103.95 1786.24) rotate(90) scale(1.01 0.14)" xlink:href="#radial-gradient"/>
    <radialGradient id="radial-gradient-15" cx="665.17" cy="705.85" r="8.56" gradientTransform="translate(0 -9.28) scale(1.4 1.01)" xlink:href="#radial-gradient"/>
    <radialGradient id="radial-gradient-16" cx="932.31" cy="7104.57" r="10.23" gradientTransform="matrix(0.99, -0.71, 0.04, 0.03, -264.47, 1166.46)" xlink:href="#radial-gradient"/>
    <radialGradient id="radial-gradient-17" cx="-168.45" cy="-17314.04" r="10.23" gradientTransform="matrix(0.99, 0.71, -0.06, 0.04, 89.37, 1543.91)" xlink:href="#radial-gradient"/>
    <radialGradient id="radial-gradient-18" cx="665.17" cy="705.85" r="11.76" xlink:href="#radial-gradient-6"/>
    <radialGradient id="radial-gradient-19" cx="1141.52" cy="-5331.85" r="15.78" xlink:href="#radial-gradient"/>
    <radialGradient id="radial-gradient-20" cx="-1224.14" cy="-10430.67" r="15.78" gradientTransform="translate(103.95 1786.24) rotate(90) scale(1.01 0.14)" xlink:href="#radial-gradient"/>
    <radialGradient id="radial-gradient-21" cx="1141.52" cy="562.17" r="8.56" gradientTransform="translate(0 -9.28) scale(1.4 1.01)" xlink:href="#radial-gradient"/>
    <radialGradient id="radial-gradient-22" cx="1370.73" cy="13153.11" r="10.23" gradientTransform="matrix(0.99, -0.71, 0.04, 0.03, -264.47, 1166.46)" xlink:href="#radial-gradient"/>
    <radialGradient id="radial-gradient-23" cx="66.78" cy="-24766.27" r="10.23" gradientTransform="matrix(0.99, 0.71, -0.06, 0.04, 89.37, 1543.91)" xlink:href="#radial-gradient"/>
    <radialGradient id="radial-gradient-24" cx="1141.52" cy="562.17" r="11.76" xlink:href="#radial-gradient-6"/>
    <radialGradient id="radial-gradient-25" cx="1055.61" cy="-4409.83" r="15.78" xlink:href="#radial-gradient"/>
    <radialGradient id="radial-gradient-26" cx="-1129.82" cy="-9590.91" r="15.78" gradientTransform="translate(103.95 1786.24) rotate(90) scale(1.01 0.14)" xlink:href="#radial-gradient"/>
    <radialGradient id="radial-gradient-27" cx="1055.61" cy="656.49" r="8.56" gradientTransform="translate(0 -9.28) scale(1.4 1.01)" xlink:href="#radial-gradient"/>
    <radialGradient id="radial-gradient-28" cx="1243.29" cy="13306.12" r="10.23" gradientTransform="matrix(0.99, -0.71, 0.04, 0.03, -264.47, 1166.46)" xlink:href="#radial-gradient"/>
    <radialGradient id="radial-gradient-29" cx="72.74" cy="-22600.03" r="10.23" gradientTransform="matrix(0.99, 0.71, -0.06, 0.04, 89.37, 1543.91)" xlink:href="#radial-gradient"/>
    <radialGradient id="radial-gradient-30" cx="1055.61" cy="656.49" r="11.76" xlink:href="#radial-gradient-6"/>
    <radialGradient id="radial-gradient-31" cx="1381.07" cy="-2471.08" r="15.78" xlink:href="#radial-gradient"/>
    <radialGradient id="radial-gradient-32" cx="-931.48" cy="-12772.37" r="15.78" gradientTransform="translate(103.95 1786.24) rotate(90) scale(1.01 0.14)" xlink:href="#radial-gradient"/>
    <radialGradient id="radial-gradient-33" cx="1381.07" cy="854.83" r="8.56" gradientTransform="translate(0 -9.28) scale(1.4 1.01)" xlink:href="#radial-gradient"/>
    <radialGradient id="radial-gradient-34" cx="1333.19" cy="22829.7" r="10.23" gradientTransform="matrix(0.99, -0.71, 0.04, 0.03, -264.47, 1166.46)" xlink:href="#radial-gradient"/>
    <radialGradient id="radial-gradient-35" cx="443.12" cy="-24128.03" r="10.23" gradientTransform="matrix(0.99, 0.71, -0.06, 0.04, 89.37, 1543.91)" xlink:href="#radial-gradient"/>
    <radialGradient id="radial-gradient-36" cx="1381.07" cy="854.83" r="11.76" xlink:href="#radial-gradient-6"/>
    <radialGradient id="radial-gradient-37" cx="1579.48" cy="-4409.83" r="33.58" xlink:href="#radial-gradient"/>
    <radialGradient id="radial-gradient-38" cx="-1129.82" cy="-14711.83" r="33.58" gradientTransform="translate(103.95 1786.24) rotate(90) scale(1.01 0.14)" xlink:href="#radial-gradient"/>
    <radialGradient id="radial-gradient-39" cx="1579.48" cy="656.49" r="18.21" gradientTransform="translate(0 -9.28) scale(1.4 1.01)" xlink:href="#radial-gradient"/>
    <radialGradient id="radial-gradient-40" cx="1613.73" cy="22831.04" r="21.77" gradientTransform="matrix(0.99, -0.71, 0.04, 0.03, -264.47, 1166.46)" xlink:href="#radial-gradient"/>
    <radialGradient id="radial-gradient-41" cx="443.17" cy="-28896.55" r="21.77" gradientTransform="matrix(0.99, 0.71, -0.06, 0.04, 89.37, 1543.91)" xlink:href="#radial-gradient"/>
    <radialGradient id="radial-gradient-42" cx="1579.48" cy="656.49" r="25.02" xlink:href="#radial-gradient-6"/>
    <radialGradient id="radial-gradient-43" cx="200.1" cy="-7869.99" r="42.65" xlink:href="#radial-gradient"/>
    <radialGradient id="radial-gradient-44" cx="-1483.79" cy="-1228.16" r="42.65" gradientTransform="translate(103.95 1786.24) rotate(90) scale(1.01 0.14)" xlink:href="#radial-gradient"/>
    <radialGradient id="radial-gradient-45" cx="200.1" cy="302.52" r="23.13" gradientTransform="translate(0 -9.28) scale(1.4 1.01)" xlink:href="#radial-gradient"/>
    <radialGradient id="radial-gradient-46" cx="888.65" cy="-8684.49" r="27.65" gradientTransform="matrix(0.99, -0.71, 0.04, 0.03, -264.47, 1166.46)" xlink:href="#radial-gradient"/>
    <radialGradient id="radial-gradient-47" cx="-782.51" cy="-16571.97" r="27.65" gradientTransform="matrix(0.99, 0.71, -0.06, 0.04, 89.37, 1543.91)" xlink:href="#radial-gradient"/>
    <radialGradient id="radial-gradient-48" cx="200.1" cy="302.52" r="31.78" xlink:href="#radial-gradient-6"/>
    <radialGradient id="radial-gradient-49" cx="1622.98" cy="-9570.22" r="46.94" xlink:href="#radial-gradient"/>
    <radialGradient id="radial-gradient-50" cx="-1657.72" cy="-15137.02" r="46.94" gradientTransform="translate(103.95 1786.24) rotate(90) scale(1.01 0.14)" xlink:href="#radial-gradient"/>
    <radialGradient id="radial-gradient-51" cx="1622.98" cy="128.59" r="25.45" gradientTransform="translate(0 -9.28) scale(1.4 1.01)" xlink:href="#radial-gradient"/>
    <radialGradient id="radial-gradient-52" cx="2017.77" cy="14023.55" r="30.43" gradientTransform="matrix(0.99, -0.71, 0.04, 0.03, -264.47, 1166.46)" xlink:href="#radial-gradient"/>
    <radialGradient id="radial-gradient-53" cx="100.64" cy="-35764.4" r="30.43" gradientTransform="matrix(0.99, 0.71, -0.06, 0.04, 89.37, 1543.91)" xlink:href="#radial-gradient"/>
    <radialGradient id="radial-gradient-54" cx="1622.98" cy="128.59" r="34.97" xlink:href="#radial-gradient-6"/>
    <radialGradient id="radial-gradient-55" cx="264.29" cy="-2874.17" r="46.94" xlink:href="#radial-gradient"/>
    <radialGradient id="radial-gradient-56" cx="-972.72" cy="-1855.6" r="46.94" gradientTransform="translate(103.95 1786.24) rotate(90) scale(1.01 0.14)" xlink:href="#radial-gradient"/>
    <radialGradient id="radial-gradient-57" cx="264.29" cy="813.59" r="25.45" gradientTransform="translate(0 -9.28) scale(1.4 1.01)" xlink:href="#radial-gradient"/>
    <radialGradient id="radial-gradient-58" cx="572.65" cy="1774.77" r="30.43" gradientTransform="matrix(0.99, -0.71, 0.04, 0.03, -264.47, 1166.46)" xlink:href="#radial-gradient"/>
    <radialGradient id="radial-gradient-59" cx="-375.73" cy="-11200.75" r="30.43" gradientTransform="matrix(0.99, 0.71, -0.06, 0.04, 89.37, 1543.91)" xlink:href="#radial-gradient"/>
    <radialGradient id="radial-gradient-60" cx="264.29" cy="813.59" r="34.97" xlink:href="#radial-gradient-6"/>
  </defs>
  <title>stars</title>
  <g id="Layer_3" data-name="Layer 3">
    <g id="_Group_" data-name="&lt;Group&gt;">
      <g id="stars">
        <g id="_Group_2" data-name="&lt;Group&gt;">
          <ellipse id="_Path_" data-name="&lt;Path&gt;" class="cls-1" cx="590.06" cy="481.16" rx="44.06" ry="3.25"/>
          <ellipse id="_Path_2" data-name="&lt;Path&gt;" class="cls-2" cx="590.06" cy="481.16" rx="4.51" ry="31.72"/>
          <ellipse id="_Path_3" data-name="&lt;Path&gt;" class="cls-3" cx="590.06" cy="481.16" rx="23.9" ry="17.21"/>
          <g id="_Group_3" data-name="&lt;Group&gt;">
            <path id="_Path_4" data-name="&lt;Path&gt;" class="cls-4" d="M610.27,466.61c.43.31-8.26,7.08-19.42,15.12s-20.56,14.3-21,14,8.26-7.08,19.42-15.12S609.84,466.3,610.27,466.61Z" transform="translate(0)"/>
            <path id="_Path_5" data-name="&lt;Path&gt;" class="cls-5" d="M610.27,495.71c-.66.47-10.24-5.66-21.4-13.7s-19.68-14.93-19-15.41,10.24,5.66,21.4,13.7S610.92,495.24,610.27,495.71Z" transform="translate(0)"/>
          </g>
          <ellipse id="_Path_6" data-name="&lt;Path&gt;" class="cls-6" cx="590.06" cy="481.16" rx="32.84" ry="23.64"/>
        </g>
        <g id="_Group_4" data-name="&lt;Group&gt;">
          <ellipse id="_Path_7" data-name="&lt;Path&gt;" class="cls-7" cx="1434.13" cy="212.37" rx="44.06" ry="3.25"/>
          <ellipse id="_Path_8" data-name="&lt;Path&gt;" class="cls-8" cx="1434.13" cy="212.37" rx="4.51" ry="31.72"/>
          <ellipse id="_Path_9" data-name="&lt;Path&gt;" class="cls-9" cx="1434.13" cy="212.37" rx="23.9" ry="17.21"/>
          <g id="_Group_5" data-name="&lt;Group&gt;">
            <path id="_Path_10" data-name="&lt;Path&gt;" class="cls-10" d="M1454.34,197.82c.43.31-8.26,7.08-19.42,15.12s-20.56,14.3-21,14,8.26-7.08,19.42-15.12S1453.9,197.5,1454.34,197.82Z" transform="translate(0)"/>
            <path id="_Path_11" data-name="&lt;Path&gt;" class="cls-11" d="M1454.34,226.92c-.66.47-10.24-5.66-21.4-13.7s-19.68-14.93-19-15.41,10.24,5.66,21.4,13.7S1455,226.45,1454.34,226.92Z" transform="translate(0)"/>
          </g>
          <ellipse id="_Path_12" data-name="&lt;Path&gt;" class="cls-12" cx="1434.13" cy="212.37" rx="32.83" ry="23.64"/>
        </g>
        <g id="_Group_6" data-name="&lt;Group&gt;">
          <ellipse id="_Path_13" data-name="&lt;Path&gt;" class="cls-13" cx="928.61" cy="700.21" rx="22.03" ry="1.62"/>
          <ellipse id="_Path_14" data-name="&lt;Path&gt;" class="cls-14" cx="928.61" cy="700.21" rx="2.25" ry="15.86"/>
          <ellipse id="_Path_15" data-name="&lt;Path&gt;" class="cls-15" cx="928.61" cy="700.21" rx="11.95" ry="8.6"/>
          <g id="_Group_7" data-name="&lt;Group&gt;">
            <path id="_Path_16" data-name="&lt;Path&gt;" class="cls-16" d="M938.71,692.93c.22.16-4.13,3.54-9.71,7.56s-10.28,7.15-10.5,7,4.13-3.54,9.71-7.56S938.49,692.78,938.71,692.93Z" transform="translate(0)"/>
            <path id="_Path_17" data-name="&lt;Path&gt;" class="cls-17" d="M938.71,707.48c-.33.24-5.12-2.83-10.7-6.85s-9.84-7.47-9.51-7.7,5.12,2.83,10.7,6.85S939,707.25,938.71,707.48Z" transform="translate(0)"/>
          </g>
          <ellipse id="_Path_18" data-name="&lt;Path&gt;" class="cls-18" cx="928.61" cy="700.21" rx="16.42" ry="11.82"/>
        </g>
        <g id="_Group_8" data-name="&lt;Group&gt;">
          <ellipse id="_Path_19" data-name="&lt;Path&gt;" class="cls-19" cx="1593.61" cy="555.79" rx="22.03" ry="1.62"/>
          <ellipse id="_Path_20" data-name="&lt;Path&gt;" class="cls-20" cx="1593.61" cy="555.79" rx="2.25" ry="15.86"/>
          <ellipse id="_Path_21" data-name="&lt;Path&gt;" class="cls-21" cx="1593.61" cy="555.79" rx="11.95" ry="8.6"/>
          <g id="_Group_9" data-name="&lt;Group&gt;">
            <path id="_Path_22" data-name="&lt;Path&gt;" class="cls-22" d="M1603.72,548.51c.22.16-4.13,3.54-9.71,7.56s-10.28,7.15-10.5,7,4.13-3.54,9.71-7.56S1603.5,548.36,1603.72,548.51Z" transform="translate(0)"/>
            <path id="_Path_23" data-name="&lt;Path&gt;" class="cls-23" d="M1603.72,563.07c-.33.24-5.12-2.83-10.7-6.85s-9.84-7.47-9.51-7.7,5.12,2.83,10.7,6.85S1604,562.83,1603.72,563.07Z" transform="translate(0)"/>
          </g>
          <ellipse id="_Path_24" data-name="&lt;Path&gt;" class="cls-24" cx="1593.61" cy="555.79" rx="16.42" ry="11.82"/>
        </g>
        <g id="_Group_10" data-name="&lt;Group&gt;">
          <ellipse id="_Path_25" data-name="&lt;Path&gt;" class="cls-25" cx="1473.68" cy="650.6" rx="22.03" ry="1.62"/>
          <ellipse id="_Path_26" data-name="&lt;Path&gt;" class="cls-26" cx="1473.68" cy="650.6" rx="2.25" ry="15.86"/>
          <ellipse id="_Path_27" data-name="&lt;Path&gt;" class="cls-27" cx="1473.68" cy="650.6" rx="11.95" ry="8.6"/>
          <g id="_Group_11" data-name="&lt;Group&gt;">
            <path id="_Path_28" data-name="&lt;Path&gt;" class="cls-28" d="M1483.78,643.32c.22.16-4.13,3.54-9.71,7.56s-10.28,7.15-10.5,7,4.13-3.54,9.71-7.56S1483.57,643.17,1483.78,643.32Z" transform="translate(0)"/>
            <path id="_Path_29" data-name="&lt;Path&gt;" class="cls-29" d="M1483.78,657.88c-.33.24-5.12-2.83-10.7-6.85s-9.84-7.47-9.51-7.7,5.12,2.83,10.7,6.85S1484.11,657.64,1483.78,657.88Z" transform="translate(0)"/>
          </g>
          <ellipse id="_Path_30" data-name="&lt;Path&gt;" class="cls-30" cx="1473.68" cy="650.6" rx="16.42" ry="11.82"/>
        </g>
        <g id="_Group_12" data-name="&lt;Group&gt;">
          <ellipse id="_Path_31" data-name="&lt;Path&gt;" class="cls-31" cx="1928.04" cy="849.96" rx="22.03" ry="1.62"/>
          <ellipse id="_Path_32" data-name="&lt;Path&gt;" class="cls-32" cx="1928.04" cy="849.96" rx="2.25" ry="15.86"/>
          <ellipse id="_Path_33" data-name="&lt;Path&gt;" class="cls-33" cx="1928.04" cy="849.96" rx="11.95" ry="8.6"/>
          <g id="_Group_13" data-name="&lt;Group&gt;">
            <path id="_Path_34" data-name="&lt;Path&gt;" class="cls-34" d="M1938.15,842.68c.22.16-4.13,3.54-9.71,7.56s-10.28,7.15-10.5,7,4.13-3.54,9.71-7.56S1937.93,842.52,1938.15,842.68Z" transform="translate(0)"/>
            <path id="_Path_35" data-name="&lt;Path&gt;" class="cls-35" d="M1938.15,857.23c-.33.24-5.12-2.83-10.7-6.85s-9.84-7.47-9.51-7.7,5.12,2.83,10.7,6.85S1938.47,857,1938.15,857.23Z" transform="translate(0)"/>
          </g>
          <ellipse id="_Path_36" data-name="&lt;Path&gt;" class="cls-36" cx="1928.04" cy="849.96" rx="16.42" ry="11.82"/>
        </g>
        <g id="_Group_14" data-name="&lt;Group&gt;">
          <ellipse id="_Path_37" data-name="&lt;Path&gt;" class="cls-37" cx="2205.03" cy="650.6" rx="46.87" ry="3.45"/>
          <ellipse id="_Path_38" data-name="&lt;Path&gt;" class="cls-38" cx="2205.03" cy="650.6" rx="4.8" ry="33.75"/>
          <ellipse id="_Path_39" data-name="&lt;Path&gt;" class="cls-39" cx="2205.03" cy="650.6" rx="25.42" ry="18.3"/>
          <g id="_Group_15" data-name="&lt;Group&gt;">
            <path id="_Path_40" data-name="&lt;Path&gt;" class="cls-40" d="M2226.53,635.12c.46.33-8.79,7.53-20.66,16.08s-21.87,15.21-22.33,14.88,8.79-7.53,20.66-16.08S2226.06,634.79,2226.53,635.12Z" transform="translate(0)"/>
            <path id="_Path_41" data-name="&lt;Path&gt;" class="cls-41" d="M2226.53,666.08c-.7.5-10.89-6-22.76-14.57s-20.93-15.89-20.23-16.39,10.89,6,22.76,14.57S2227.22,665.58,2226.53,666.08Z" transform="translate(0)"/>
          </g>
          <ellipse id="_Path_42" data-name="&lt;Path&gt;" class="cls-42" cx="2205.03" cy="650.6" rx="34.93" ry="25.15"/>
        </g>
        <g id="_Group_16" data-name="&lt;Group&gt;">
          <ellipse id="_Path_43" data-name="&lt;Path&gt;" class="cls-43" cx="279.35" cy="294.8" rx="59.53" ry="4.39"/>
          <ellipse id="_Path_44" data-name="&lt;Path&gt;" class="cls-44" cx="279.35" cy="294.8" rx="6.09" ry="42.86"/>
          <ellipse id="_Path_45" data-name="&lt;Path&gt;" class="cls-45" cx="279.35" cy="294.8" rx="32.29" ry="23.25"/>
          <g id="_Group_17" data-name="&lt;Group&gt;">
            <path id="_Path_46" data-name="&lt;Path&gt;" class="cls-46" d="M306.65,275.14c.59.42-11.16,9.57-26.24,20.42s-27.78,19.32-28.37,18.9,11.16-9.57,26.24-20.42S306.07,274.72,306.65,275.14Z" transform="translate(0)"/>
            <path id="_Path_47" data-name="&lt;Path&gt;" class="cls-47" d="M306.65,314.46c-.89.64-13.83-7.65-28.91-18.5s-26.59-20.18-25.7-20.82,13.83,7.65,28.91,18.5S307.54,313.82,306.65,314.46Z" transform="translate(0)"/>
          </g>
          <ellipse id="_Path_48" data-name="&lt;Path&gt;" class="cls-48" cx="279.35" cy="294.8" rx="44.36" ry="31.94"/>
        </g>
        <g id="_Group_18" data-name="&lt;Group&gt;">
          <ellipse id="_Path_49" data-name="&lt;Path&gt;" class="cls-49" cx="2265.75" cy="119.97" rx="65.52" ry="4.83"/>
          <ellipse id="_Path_50" data-name="&lt;Path&gt;" class="cls-50" cx="2265.75" cy="119.97" rx="6.71" ry="47.17"/>
          <ellipse id="_Path_51" data-name="&lt;Path&gt;" class="cls-51" cx="2265.75" cy="119.97" rx="35.54" ry="25.59"/>
          <g id="_Group_19" data-name="&lt;Group&gt;">
            <path id="_Path_52" data-name="&lt;Path&gt;" class="cls-52" d="M2295.8,98.33c.64.46-12.29,10.53-28.88,22.48s-30.58,21.26-31.22,20.8,12.29-10.53,28.88-22.48S2295.16,97.87,2295.8,98.33Z" transform="translate(0)"/>
            <path id="_Path_53" data-name="&lt;Path&gt;" class="cls-53" d="M2295.8,141.61c-1,.7-15.22-8.42-31.82-20.37S2234.72,99,2235.7,98.33s15.22,8.42,31.82,20.37S2296.78,140.91,2295.8,141.61Z" transform="translate(0)"/>
          </g>
          <ellipse id="_Path_54" data-name="&lt;Path&gt;" class="cls-54" cx="2265.75" cy="119.97" rx="48.83" ry="35.15"/>
        </g>
        <g id="_Group_20" data-name="&lt;Group&gt;">
          <ellipse id="_Path_55" data-name="&lt;Path&gt;" class="cls-55" cx="368.96" cy="808.51" rx="65.52" ry="4.83"/>
          <ellipse id="_Path_56" data-name="&lt;Path&gt;" class="cls-56" cx="368.96" cy="808.51" rx="6.71" ry="47.17"/>
          <ellipse id="_Path_57" data-name="&lt;Path&gt;" class="cls-57" cx="368.96" cy="808.51" rx="35.54" ry="25.59"/>
          <g id="_Group_21" data-name="&lt;Group&gt;">
            <path id="_Path_58" data-name="&lt;Path&gt;" class="cls-58" d="M399,786.87c.64.46-12.29,10.53-28.88,22.48s-30.58,21.26-31.22,20.8,12.29-10.53,28.88-22.48S398.36,786.4,399,786.87Z" transform="translate(0)"/>
            <path id="_Path_59" data-name="&lt;Path&gt;" class="cls-59" d="M399,830.14c-1,.7-15.22-8.42-31.82-20.37s-29.26-22.21-28.29-22.91,15.22,8.42,31.82,20.37S400,829.44,399,830.14Z" transform="translate(0)"/>
          </g>
          <ellipse id="_Path_60" data-name="&lt;Path&gt;" class="cls-60" cx="368.96" cy="808.51" rx="48.83" ry="35.15"/>
        </g>
      </g>
    </g>
  </g>
  <g id="Layer_4" data-name="Layer 4">
    <rect class="cls-61" width="2500.94" height="1800"/>
  </g>
</svg>
